<?xml version="1.0" standalone="no"?>
<!DOCTYPE svg PUBLIC "-//W3C//DTD SVG 20010904//EN"
 "http://www.w3.org/TR/2001/REC-SVG-20010904/DTD/svg10.dtd">
<svg version="1.0" xmlns="http://www.w3.org/2000/svg"
 width="900.000000pt" height="975.000000pt" viewBox="0 0 900.000000 975.000000"
 preserveAspectRatio="xMidYMid meet">
<metadata>
Created by potrace 1.10, written by Peter Selinger 2001-2011
</metadata>
<g transform="translate(0.000000,975.000000) scale(0.100000,-0.100000)"
fill="#ffffff" stroke="none">
<path d="M6365 9189 c-53 -22 -134 -100 -135 -131 0 -30 47 -23 64 10 37 72
103 102 223 102 l93 0 50 -52 c38 -41 50 -61 50 -85 0 -40 -13 -49 -42 -29
-12 9 -31 16 -42 16 -11 0 -27 6 -35 14 -23 20 -181 28 -181 9 0 -7 11 -18 24
-22 13 -5 26 -17 30 -26 11 -29 7 -100 -8 -120 -7 -11 -16 -53 -19 -93 -5 -65
-4 -73 11 -70 12 2 19 17 23 45 3 23 11 49 18 57 9 11 13 41 12 87 -1 39 1 79
4 90 7 20 39 26 50 9 3 -5 14 -10 23 -10 9 0 30 -7 46 -15 15 -8 41 -15 57
-15 15 0 31 -4 34 -10 3 -5 24 -10 45 -10 81 0 89 -19 27 -68 -114 -89 -136
-104 -187 -127 -30 -14 -68 -32 -83 -40 -16 -8 -41 -15 -57 -15 -24 0 -32 -7
-46 -40 -10 -22 -21 -40 -25 -40 -4 0 -10 18 -14 40 -4 22 -11 42 -16 46 -5 3
-9 16 -9 29 0 13 -4 27 -10 30 -15 9 -12 82 4 114 8 15 12 38 9 50 -3 13 1 29
10 39 20 22 33 97 19 106 -19 11 -62 -12 -62 -34 0 -12 -24 -47 -54 -78 -29
-31 -63 -76 -75 -100 -12 -24 -28 -45 -36 -49 -8 -3 -15 -13 -15 -23 0 -10 -7
-23 -15 -30 -8 -7 -15 -21 -15 -32 0 -10 -9 -36 -20 -58 -11 -22 -20 -55 -20
-73 0 -20 -7 -40 -16 -48 -12 -10 -15 -24 -10 -61 5 -38 4 -50 -9 -54 -13 -5
-15 -36 -15 -213 0 -252 8 -285 73 -305 9 -3 17 -15 17 -28 0 -13 7 -32 15
-42 8 -11 15 -34 15 -51 0 -17 6 -37 12 -43 10 -10 10 -17 0 -32 -6 -11 -12
-25 -12 -32 0 -7 -16 -26 -35 -41 -19 -15 -35 -34 -35 -42 0 -7 -11 -27 -25
-43 -14 -17 -25 -35 -25 -40 0 -18 20 -24 35 -12 12 10 15 9 15 -8 0 -23 -25
-47 -40 -37 -5 3 -10 13 -10 21 0 8 -6 14 -14 14 -7 0 -31 16 -52 35 -21 19
-66 60 -100 90 -33 30 -68 55 -77 55 -10 0 -17 5 -17 10 0 6 -12 16 -27 23
-15 6 -38 22 -52 35 -13 12 -29 22 -36 22 -7 0 -18 7 -26 16 -7 8 -45 31 -83
50 -39 20 -75 39 -80 45 -6 5 -21 9 -35 9 -13 0 -32 7 -41 15 -10 9 -35 19
-56 22 -22 3 -46 11 -54 18 -20 16 -61 26 -135 32 -37 3 -63 10 -68 19 -5 9
-26 14 -63 14 -30 0 -67 6 -82 14 -33 17 -220 21 -307 6 -33 -5 -72 -19 -87
-30 -15 -11 -37 -20 -48 -20 -11 0 -31 -6 -43 -14 -23 -14 -76 -33 -232 -81
-49 -15 -109 -36 -132 -46 -24 -11 -49 -19 -57 -19 -7 0 -44 -16 -82 -35 -37
-19 -74 -35 -80 -35 -7 0 -19 -8 -26 -18 -7 -10 -28 -24 -46 -31 -18 -8 -37
-22 -43 -32 -5 -11 -18 -19 -28 -19 -10 0 -26 -10 -37 -21 -10 -12 -27 -24
-37 -28 -24 -9 -287 -271 -287 -285 0 -6 -13 -26 -29 -44 -16 -17 -32 -41 -36
-52 -3 -11 -11 -20 -16 -20 -5 0 -9 -11 -9 -24 0 -14 -4 -28 -10 -31 -5 -3
-18 -26 -29 -50 -17 -39 -24 -45 -50 -45 -16 0 -33 -4 -36 -10 -3 -5 -18 -10
-33 -10 -18 0 -39 -12 -61 -35 -29 -30 -40 -35 -81 -35 -30 0 -52 -6 -60 -15
-18 -21 -118 -20 -149 2 -22 15 -26 15 -57 -2 -36 -19 -43 -45 -19 -65 23 -19
19 -92 -6 -124 -12 -15 -18 -33 -14 -43 9 -26 114 -90 176 -109 30 -9 69 -22
86 -30 21 -9 49 -11 77 -8 31 5 46 2 52 -7 5 -8 12 -126 16 -264 8 -283 13
-347 34 -392 8 -17 14 -42 14 -55 0 -25 26 -106 39 -123 5 -5 14 -28 20 -50
17 -54 92 -206 112 -225 9 -8 22 -31 29 -50 7 -19 35 -57 61 -85 74 -78 71
-95 -28 -189 -45 -43 -85 -87 -89 -99 -4 -12 -13 -26 -20 -32 -15 -12 -64
-103 -64 -120 0 -7 -9 -23 -21 -36 -17 -20 -20 -32 -14 -73 3 -27 13 -55 22
-61 9 -7 13 -17 9 -23 -4 -6 -4 -22 0 -36 7 -30 59 -45 93 -26 22 11 62 4 116
-20 11 -5 40 -11 64 -12 37 -3 47 -8 61 -32 8 -16 22 -33 30 -37 35 -17 99
-31 118 -25 14 5 24 1 30 -10 5 -10 27 -18 56 -21 25 -3 49 -10 52 -14 3 -5
23 -9 45 -9 22 0 50 -5 62 -12 27 -15 126 -29 192 -28 27 0 59 -3 70 -9 11 -5
28 -12 39 -15 16 -6 12 -13 -33 -61 -28 -29 -51 -57 -51 -62 0 -4 -85 -94
-188 -200 l-188 -192 -63 2 c-59 2 -65 0 -90 -29 -25 -30 -28 -31 -91 -26 -36
2 -72 10 -80 17 -8 7 -46 15 -85 18 -38 2 -108 10 -154 17 -112 16 -686 10
-717 -7 -13 -8 -69 -13 -140 -14 -78 -1 -128 -6 -146 -15 -15 -8 -56 -14 -91
-14 -69 0 -124 -21 -189 -72 -53 -42 -52 -73 5 -97 23 -10 50 -28 61 -39 17
-20 17 -22 2 -28 -9 -3 -25 -4 -36 -1 -23 6 -70 -27 -70 -49 0 -8 -9 -22 -20
-31 -11 -10 -20 -23 -20 -29 0 -7 -18 -32 -40 -55 -22 -24 -40 -46 -40 -50 0
-4 -16 -31 -35 -60 -19 -30 -35 -57 -35 -62 0 -4 -11 -20 -25 -35 -14 -15 -25
-30 -25 -34 0 -4 -13 -27 -30 -51 -16 -25 -30 -50 -30 -55 0 -6 -13 -31 -30
-55 -16 -25 -30 -48 -30 -52 0 -4 -28 -62 -61 -129 -66 -130 -99 -215 -99
-253 0 -12 -4 -23 -10 -23 -5 0 -10 -11 -10 -24 0 -14 -5 -28 -10 -31 -13 -8
-13 -52 0 -60 5 -3 10 -17 10 -30 0 -13 5 -27 10 -30 10 -6 14 7 11 32 -1 7
10 20 25 29 22 15 27 15 35 3 13 -20 11 -35 -6 -49 -8 -7 -15 -20 -15 -30 0
-9 -3 -20 -7 -24 -4 -3 -12 -22 -19 -41 -9 -27 -9 -38 2 -52 12 -17 13 -16 23
9 5 14 15 29 20 33 6 3 11 21 11 38 0 42 20 79 50 94 23 11 28 9 60 -21 40
-38 76 -59 89 -52 5 3 11 23 14 43 6 51 36 164 48 187 6 10 13 28 15 40 2 12
15 45 29 74 14 28 25 56 25 61 0 5 6 14 14 20 8 7 18 25 21 41 3 16 13 34 21
41 8 6 14 17 14 24 0 6 25 38 55 71 30 32 58 67 61 77 4 12 12 16 21 13 10 -4
37 11 70 39 31 25 62 45 69 45 8 0 14 5 14 10 0 6 8 13 18 17 9 3 31 16 47 28
17 12 51 31 77 44 25 12 49 28 52 36 3 8 15 15 26 15 11 0 20 4 20 9 0 5 10
13 23 17 12 3 29 12 37 19 45 37 102 46 327 48 161 1 226 6 235 15 8 8 46 12
114 12 70 0 111 5 130 15 20 10 44 13 81 8 42 -4 58 -2 80 13 15 10 48 20 73
21 100 5 277 48 308 76 9 8 26 17 37 19 27 4 31 39 10 90 -12 31 -13 43 -4 54
7 8 13 36 14 62 1 26 3 56 4 66 0 10 57 74 126 142 69 67 125 127 125 133 0 6
27 37 60 70 33 33 60 66 60 74 0 7 11 24 25 37 14 13 25 29 25 36 0 8 13 27
30 44 32 33 79 40 100 15 7 -9 35 -15 73 -17 58 -3 62 -5 65 -28 2 -14 9 -31
14 -38 6 -6 14 -27 17 -45 5 -26 13 -33 36 -37 17 -3 43 -14 59 -25 25 -16 45
-19 135 -19 95 1 111 4 156 28 58 31 77 67 69 129 -5 32 -2 46 10 56 9 7 16
19 16 27 0 20 19 27 36 13 10 -8 14 -31 14 -73 -1 -111 11 -210 26 -219 9 -5
14 -25 14 -52 0 -24 5 -47 10 -50 6 -3 10 -19 10 -35 0 -16 6 -41 14 -57 46
-93 48 -101 26 -150 -11 -25 -18 -49 -15 -53 3 -4 -2 -21 -10 -36 -8 -16 -15
-34 -15 -39 0 -17 98 -44 185 -51 44 -3 89 -12 100 -20 29 -21 63 -17 86 10
21 24 22 24 55 8 19 -8 34 -21 34 -27 0 -6 14 -38 30 -71 49 -93 53 -186 10
-197 -17 -4 -20 -13 -20 -60 0 -30 -7 -71 -16 -92 -13 -31 -15 -82 -13 -312 1
-195 -1 -277 -10 -286 -18 -18 -14 -162 4 -177 9 -8 13 -21 9 -32 -3 -10 0
-26 8 -35 9 -11 15 -62 18 -167 l5 -151 37 2 c21 1 49 10 63 19 21 14 30 15
48 5 16 -8 31 -9 48 -2 39 14 49 1 46 -60 -2 -50 -4 -54 -27 -54 -21 0 -27 7
-34 38 l-10 38 -11 -33 c-9 -28 -15 -33 -38 -30 -20 2 -27 -2 -29 -15 0 -10
-2 -23 -2 -30 -1 -7 -7 -18 -14 -25 -6 -6 -12 -24 -12 -39 0 -15 -7 -32 -15
-39 -8 -7 -15 -27 -15 -44 -1 -17 -7 -42 -14 -55 -7 -13 -11 -32 -8 -43 8 -30
-38 -88 -70 -88 -24 0 -28 -4 -28 -28 0 -40 9 -44 41 -21 16 11 33 17 39 14
17 -10 11 -43 -11 -64 -20 -18 -21 -27 -15 -90 5 -63 4 -71 -13 -81 -11 -5
-29 -10 -40 -10 -20 0 -21 -5 -21 -155 0 -147 1 -155 19 -155 28 0 36 -18 17
-39 -21 -24 -20 -48 4 -68 12 -11 17 -25 14 -38 -3 -13 8 -40 33 -78 30 -45
44 -58 71 -63 18 -4 36 -3 40 1 4 4 7 56 7 116 0 72 5 113 13 121 6 6 12 31
12 55 0 23 6 46 13 50 7 4 18 33 25 63 27 115 35 145 43 154 5 6 9 22 9 37 0
15 7 34 15 43 8 8 15 21 15 29 0 8 6 20 14 26 8 6 17 31 20 56 4 24 18 65 31
92 14 26 25 55 25 63 0 8 7 28 15 44 8 15 15 37 15 48 0 10 16 48 36 85 21 39
34 76 32 92 -3 25 -6 26 -75 29 -40 2 -74 6 -74 10 -7 34 -3 135 6 140 5 4 46
7 90 7 l80 0 3 28 c2 15 -6 46 -17 68 -25 47 -26 72 -6 89 10 8 15 31 15 69 0
35 6 65 15 77 8 10 15 37 15 59 0 23 10 68 22 100 20 57 21 75 19 359 0 164
-5 305 -10 314 -5 8 -6 43 -4 76 4 49 2 64 -11 75 -21 18 -21 114 0 187 l16
55 60 -7 61 -7 -7 47 c-9 55 -32 116 -45 116 -19 0 -22 -40 -5 -65 27 -42 6
-52 -63 -31 -32 10 -74 19 -93 20 -19 2 -44 7 -55 13 -11 6 -80 10 -161 9
-118 -1 -145 -4 -168 -20 -20 -13 -31 -15 -39 -7 -17 17 -42 13 -62 -9 -23
-25 -55 -10 -55 26 0 28 31 94 53 113 8 6 20 25 27 41 7 17 18 30 25 30 7 0
24 11 39 25 15 14 33 25 40 25 7 0 24 8 37 18 19 14 41 18 102 17 45 -1 82 -6
89 -13 7 -7 21 -12 33 -12 36 0 94 -36 157 -99 63 -63 81 -72 92 -44 6 14 13
10 47 -23 42 -40 129 -163 129 -182 0 -6 3 -12 8 -14 11 -5 52 -66 52 -78 0
-6 10 -27 23 -48 37 -62 84 -164 97 -212 6 -25 16 -61 22 -80 6 -19 12 -46 13
-60 1 -14 5 -40 9 -58 7 -27 5 -32 -12 -32 -10 0 -27 -9 -38 -21 -15 -17 -16
-23 -6 -40 10 -16 9 -26 -9 -61 -18 -35 -20 -53 -16 -107 4 -55 2 -72 -15 -99
-18 -29 -20 -44 -14 -111 5 -60 3 -81 -9 -96 -10 -15 -14 -48 -15 -123 0 -67
-5 -113 -14 -130 -21 -43 -36 -403 -26 -658 1 -34 -3 -70 -9 -82 -9 -16 -8
-24 5 -37 9 -9 21 -14 27 -12 12 4 13 5 57 97 17 36 51 103 75 150 34 64 44
96 45 132 0 26 5 50 10 53 6 3 10 19 10 35 0 18 11 39 30 58 16 17 30 40 30
51 0 25 -13 27 -30 6 -11 -13 -15 -13 -21 -3 -14 21 -10 54 6 68 10 8 15 31
15 64 1 50 16 86 38 86 8 0 10 15 6 44 -5 32 -2 50 11 69 9 14 14 31 10 37 -4
6 0 19 8 28 8 9 18 27 21 40 4 12 12 22 17 22 5 0 9 13 9 29 0 16 7 34 15 41
8 7 15 19 15 26 0 19 39 95 62 121 25 27 78 133 78 154 0 29 -30 89 -55 111
-24 21 -34 58 -16 58 4 0 20 17 34 38 31 44 28 82 -8 82 -12 0 -28 7 -35 15
-7 8 -23 15 -36 15 -13 0 -25 3 -25 8 -1 4 -3 78 -5 164 -2 119 -7 164 -19
188 -9 17 -13 40 -10 51 4 11 0 25 -9 35 -9 8 -16 24 -16 35 0 11 -7 33 -14
48 -8 15 -13 37 -10 47 6 21 -80 194 -102 207 -8 4 -14 15 -14 23 0 8 -16 31
-35 51 -19 20 -35 41 -35 47 0 14 -81 96 -96 96 -7 0 -32 20 -56 44 -23 24
-58 51 -75 60 -18 9 -33 20 -33 25 0 5 -12 12 -27 16 -33 8 -43 21 -43 56 0
26 -27 59 -49 59 -6 0 -80 68 -163 151 -146 146 -152 151 -185 146 -49 -8 -78
6 -107 52 -18 28 -33 41 -53 43 -20 2 -29 9 -31 26 -5 31 10 46 88 93 37 22
82 53 100 69 19 17 37 30 42 30 13 0 278 266 278 279 0 6 18 31 40 55 22 24
40 47 40 52 0 5 9 17 20 27 11 9 20 23 20 30 0 8 11 24 25 37 14 13 25 28 25
34 0 7 16 36 36 66 52 78 66 110 60 127 -4 9 -1 22 6 30 31 38 76 198 85 308
3 33 11 68 18 78 10 14 12 43 9 104 -4 66 -2 90 10 108 21 32 22 172 1 199
-10 13 -14 47 -14 113 1 73 -3 99 -15 112 -15 17 -15 23 5 75 12 31 26 56 30
56 5 0 9 9 9 21 0 12 6 35 14 52 19 43 28 90 31 163 1 34 7 75 14 91 8 21 10
109 7 328 -5 355 -20 573 -41 594 -12 13 -16 11 -25 -14 -6 -16 -8 -41 -4 -55
4 -14 7 -88 8 -165 2 -85 7 -149 14 -162 17 -31 17 -416 0 -446 -12 -21 -29
-171 -29 -249 0 -20 -4 -40 -9 -43 -6 -3 -10 -21 -10 -38 0 -36 -8 -51 -30
-59 -12 -4 -16 1 -18 20 -1 14 -11 43 -22 64 -11 21 -20 49 -20 62 0 13 -7 29
-15 36 -8 7 -15 17 -15 22 0 20 -71 155 -90 173 -27 24 -25 44 6 91 31 46 64
135 64 175 0 15 5 31 10 34 6 3 10 23 10 44 0 20 7 46 15 57 8 10 15 34 15 52
0 18 6 43 14 55 17 27 26 168 10 174 -15 5 -34 -42 -34 -85 0 -21 -5 -43 -11
-49 -6 -6 -12 -29 -15 -52 -2 -23 -11 -52 -19 -65 -10 -14 -13 -34 -10 -48 4
-16 1 -29 -9 -37 -10 -8 -16 -29 -16 -52 0 -21 -4 -40 -9 -44 -5 -3 -13 -20
-16 -38 -4 -17 -13 -45 -20 -62 -7 -16 -15 -38 -19 -47 -11 -34 -42 -21 -67
27 -13 27 -20 30 -60 30 -38 0 -44 3 -47 23 -2 12 1 22 7 22 6 0 17 15 25 34
8 19 24 39 35 46 12 6 21 20 21 32 0 12 6 29 13 37 7 9 22 36 32 61 10 25 25
52 32 61 7 8 13 24 13 35 0 11 7 29 15 40 8 10 15 32 15 47 0 28 42 76 68 77
25 0 12 28 -14 28 -45 0 -59 24 -56 102 1 47 -3 78 -12 93 -20 31 -20 243 -1
274 11 17 13 43 8 117 -4 71 -3 99 7 111 12 14 15 14 31 -1 11 -10 19 -25 19
-34 0 -10 9 -20 20 -23 24 -6 17 -33 -11 -40 -17 -5 -18 -8 -5 -32 8 -16 12
-42 9 -66 -3 -21 -1 -44 5 -51 6 -7 13 -30 17 -51 4 -20 11 -40 16 -43 5 -3 9
-14 9 -25 0 -10 5 -28 10 -39 6 -11 15 -29 20 -40 25 -49 5 -167 -33 -199 -10
-7 -17 -22 -17 -32 0 -15 8 -19 39 -19 46 0 51 10 53 90 1 39 6 54 20 61 10 5
18 19 18 31 0 15 5 19 19 15 16 -4 20 3 25 43 6 42 2 58 -29 122 -20 40 -44
87 -54 103 -9 17 -23 51 -30 77 -12 42 -11 51 5 85 13 25 32 44 57 56 20 9 37
22 37 27 0 6 18 10 40 10 51 0 93 21 150 76 25 24 50 44 56 44 13 0 84 75 84
89 0 32 196 8 282 -35 27 -13 54 -24 60 -24 7 0 45 -16 83 -35 39 -19 75 -35
82 -35 6 0 13 -4 15 -8 6 -17 108 -82 127 -82 11 0 32 -10 47 -23 22 -20 25
-28 19 -56 -4 -18 -19 -47 -33 -64 -32 -38 -47 -62 -65 -102 -8 -16 -21 -36
-31 -44 -9 -8 -14 -21 -11 -31 3 -11 -5 -30 -20 -48 -14 -16 -25 -33 -25 -37
0 -4 -13 -27 -30 -52 -31 -45 -37 -68 -21 -77 4 -3 34 -57 65 -120 32 -63 65
-117 74 -121 24 -10 90 -26 137 -32 22 -3 49 -12 60 -19 11 -8 34 -14 53 -14
18 0 44 -7 57 -16 31 -20 55 -12 55 18 0 13 9 29 20 36 11 7 20 16 20 21 0 17
-51 71 -67 71 -9 0 -25 9 -37 20 -34 32 -99 84 -129 104 -17 10 -42 44 -59 79
-40 82 -53 106 -67 120 -14 14 -14 84 0 92 5 4 15 17 20 28 6 12 27 51 47 86
30 52 44 66 76 76 25 9 44 10 55 4 9 -5 38 -17 66 -28 27 -10 53 -25 57 -32 4
-8 26 -57 50 -109 23 -52 56 -117 73 -145 24 -40 30 -60 29 -103 -1 -33 -8
-59 -18 -71 -9 -10 -16 -27 -16 -38 0 -11 -10 -40 -23 -64 -27 -52 -29 -97 -4
-113 14 -8 20 -8 27 4 5 8 6 18 3 23 -3 5 2 23 10 40 25 52 57 139 57 156 0 9
7 25 15 35 8 11 15 32 15 47 0 24 -75 181 -144 301 -23 40 -16 59 14 40 11 -7
28 -12 37 -12 64 -1 163 -64 163 -104 0 -23 22 -92 33 -102 14 -14 7 -92 -11
-115 -10 -13 -24 -37 -32 -54 -8 -16 -24 -44 -36 -61 -12 -16 -29 -46 -37 -66
-8 -20 -24 -45 -34 -55 -11 -11 -23 -27 -26 -37 -7 -18 8 -56 22 -56 9 0 101
145 101 159 0 5 7 15 16 22 9 8 25 33 35 57 11 24 35 62 54 85 45 52 45 51 1
134 -9 17 -16 38 -16 47 0 9 -4 24 -9 34 -5 9 -15 38 -21 63 -10 40 -17 49
-49 62 -73 29 -107 39 -156 47 -57 9 -155 39 -170 51 -5 5 -18 9 -30 9 -12 0
-30 7 -41 15 -10 8 -32 15 -49 15 -41 0 -47 7 -79 71 -27 56 -86 120 -141 154
-16 10 -34 24 -38 32 -4 7 -16 13 -25 13 -9 0 -23 9 -30 20 -7 11 -19 20 -27
20 -9 0 -32 10 -53 23 -55 33 -148 77 -166 77 -8 0 -18 5 -21 10 -3 6 -19 10
-35 10 -16 0 -32 5 -35 10 -3 6 -21 10 -40 10 -19 0 -38 6 -42 14 -4 7 -19 16
-33 19 -14 3 -38 10 -55 15 -55 19 -114 29 -125 22 -6 -4 -28 1 -48 11 -54 28
-256 26 -327 -2z m431 -59 c12 0 35 -7 50 -15 16 -8 39 -15 52 -15 12 0 22 -4
22 -10 0 -5 9 -10 21 -10 12 0 35 -6 52 -13 18 -8 57 -22 87 -32 63 -20 283
-128 319 -156 13 -11 27 -19 32 -19 18 0 149 -139 149 -158 0 -11 6 -23 13
-26 6 -3 -1 -3 -18 1 -16 3 -36 14 -44 25 -19 26 -128 108 -144 108 -7 0 -17
4 -23 9 -15 16 -104 61 -119 61 -8 0 -34 11 -58 24 -25 13 -58 26 -73 30 -77
19 -146 29 -215 30 -42 0 -82 6 -90 13 -8 6 -25 13 -39 15 -23 3 -25 7 -22 45
2 32 -2 47 -17 62 -37 37 -25 67 17 45 15 -8 37 -14 48 -14z m-536 -275 c0 -8
-4 -15 -10 -15 -5 0 -10 7 -10 15 0 8 5 15 10 15 6 0 10 -7 10 -15z m-40 -108
c-15 -29 -20 -52 -15 -64 6 -15 9 -13 22 15 11 28 16 32 28 22 21 -17 20 -106
-1 -118 -12 -7 -16 -34 -20 -133 -3 -68 -10 -134 -17 -147 -8 -18 -8 -28 1
-42 17 -28 17 -233 0 -228 -24 8 -42 103 -47 258 -5 111 -3 162 6 181 7 14 12
35 12 45 0 10 3 43 7 73 5 43 4 53 -7 49 -7 -2 -16 -19 -20 -37 -4 -18 -12
-38 -18 -44 -6 -6 -11 -32 -11 -58 0 -26 -4 -51 -10 -54 -6 -4 -10 -63 -10
-145 0 -82 4 -141 10 -145 6 -3 10 -19 10 -35 0 -16 4 -31 9 -34 5 -3 12 -21
15 -39 4 -22 16 -39 36 -50 40 -24 38 -44 -5 -64 -34 -16 -37 -16 -80 5 l-45
22 0 226 c0 132 5 244 11 268 28 107 42 152 50 161 5 5 9 19 9 31 0 11 12 43
26 70 14 27 31 57 36 68 9 16 12 17 25 3 14 -13 13 -20 -7 -60z m68 30 c2 -19
-1 -27 -13 -27 -19 0 -30 24 -21 46 9 23 31 11 34 -19z m122 -276 c0 -16 6
-31 14 -34 7 -3 16 -24 20 -47 6 -41 19 -70 44 -102 18 -21 20 -84 4 -100 -16
-16 -38 15 -46 65 -4 22 -13 52 -21 68 -8 15 -15 43 -15 62 0 19 -7 40 -15 47
-8 7 -15 25 -15 41 0 19 5 29 15 29 10 0 15 -10 15 -29z m1097 -270 c56 -136
78 -171 119 -191 22 -11 51 -31 64 -45 13 -14 29 -25 35 -25 7 0 29 -13 50
-30 21 -16 43 -30 50 -30 15 0 28 -27 17 -34 -10 -6 -112 18 -140 33 -11 6
-34 11 -51 11 -16 0 -33 5 -36 10 -3 6 -21 10 -39 10 -43 0 -63 23 -120 134
l-46 90 17 44 c19 50 40 75 55 66 5 -4 17 -23 25 -43z m-2557 -265 c52 -1 83
-8 103 -20 15 -10 27 -20 27 -22 0 -2 -19 -8 -42 -14 -53 -13 -84 -27 -123
-56 -16 -11 -40 -24 -52 -28 -13 -4 -23 -11 -23 -16 0 -5 -15 -17 -32 -26 -32
-16 -218 -201 -218 -216 0 -4 -15 -25 -34 -45 -18 -21 -54 -81 -80 -133 -26
-52 -54 -108 -62 -123 -8 -16 -14 -38 -14 -50 0 -11 -7 -29 -17 -39 -14 -15
-32 -18 -120 -18 -57 0 -113 -5 -124 -10 -27 -15 -459 -20 -459 -6 0 6 9 25
20 41 11 17 20 38 20 47 0 9 11 30 25 46 14 17 25 32 25 35 0 15 83 128 100
137 11 6 20 19 20 30 0 20 146 168 183 185 12 5 36 24 52 41 28 29 62 54 107
80 10 6 29 20 41 31 12 10 49 30 82 42 33 13 67 29 75 35 42 32 132 65 195 73
64 7 104 7 325 -1z m1310 -61 c10 -12 9 -20 -6 -42 -11 -16 -21 -43 -24 -62
-3 -19 -10 -36 -17 -38 -13 -5 -43 46 -43 73 0 10 -8 26 -17 37 -17 18 -17 19
2 33 25 19 89 18 105 -1z m-1020 -10 c7 -8 23 -15 36 -15 12 0 25 -4 28 -9 3
-5 22 -12 43 -16 20 -4 66 -23 102 -42 110 -60 116 -63 127 -63 6 0 23 -11 38
-25 15 -14 33 -25 40 -25 7 0 27 -13 44 -30 18 -16 37 -30 44 -30 7 0 30 -20
52 -45 21 -25 46 -45 55 -45 22 0 164 -137 156 -150 -4 -6 -20 -8 -40 -4 -19
3 -35 1 -39 -5 -4 -6 -23 -11 -43 -11 -19 0 -47 -6 -61 -14 -42 -21 -92 -35
-106 -30 -7 3 -19 -2 -26 -11 -7 -8 -21 -15 -32 -15 -11 0 -41 -11 -67 -24
-25 -13 -58 -27 -72 -30 -14 -3 -41 -17 -60 -30 -19 -14 -45 -30 -59 -36 -26
-11 -100 -87 -100 -102 0 -13 13 -9 40 12 14 11 31 20 38 20 6 0 20 8 31 19
24 24 177 99 219 107 18 4 35 11 38 15 3 5 14 9 25 9 10 0 27 4 37 9 25 13 86
31 104 31 9 0 21 7 28 15 7 8 29 15 49 15 21 0 46 7 57 15 10 8 31 15 45 15
15 0 40 7 55 15 16 8 36 15 44 15 21 0 80 -55 80 -74 0 -9 5 -16 11 -16 5 0
16 -15 24 -33 7 -18 22 -41 33 -50 11 -10 23 -29 26 -41 3 -12 24 -55 46 -95
22 -41 40 -82 40 -92 0 -11 11 -40 24 -66 30 -59 46 -127 46 -196 0 -28 7 -60
14 -69 18 -24 16 -512 -2 -530 -7 -7 -12 -31 -12 -55 0 -23 -6 -60 -14 -80 -8
-21 -17 -62 -21 -92 -3 -30 -13 -63 -21 -75 -8 -11 -14 -33 -14 -48 0 -15 -4
-30 -10 -33 -5 -3 -10 -17 -10 -30 0 -13 -4 -26 -9 -29 -11 -7 -51 -87 -51
-102 0 -5 -20 -38 -45 -74 -25 -36 -56 -81 -69 -100 -13 -19 -33 -44 -45 -54
-11 -11 -21 -26 -21 -35 0 -22 -312 -331 -333 -331 -9 0 -23 -10 -32 -23 -16
-25 -91 -67 -118 -67 -9 0 -23 -13 -31 -29 -9 -16 -23 -31 -33 -34 -10 -4 -25
-10 -33 -15 -40 -24 -62 -32 -81 -32 -12 0 -36 -9 -53 -19 -17 -11 -48 -22
-69 -26 -37 -7 -37 -7 -28 18 6 14 22 44 36 66 14 22 25 44 25 48 0 4 12 19
26 34 15 15 32 38 38 51 13 27 45 36 57 17 6 -11 14 -8 34 11 28 26 50 22 67
-13 4 -9 12 -25 17 -34 4 -10 14 -18 22 -18 19 0 15 46 -8 93 -17 35 -20 37
-71 38 -33 1 -58 -4 -67 -12 -7 -8 -23 -14 -34 -14 -12 0 -29 -8 -38 -19 -30
-31 -53 -65 -53 -75 0 -5 -10 -21 -23 -35 -13 -15 -40 -65 -61 -113 -38 -86
-45 -93 -88 -89 -10 1 -28 -4 -40 -11 -13 -7 -36 -14 -53 -15 -16 -1 -86 -7
-155 -12 -177 -13 -324 -13 -355 1 -14 6 -25 19 -25 29 0 10 -11 30 -25 45
-14 15 -31 38 -38 50 -7 12 -25 43 -41 69 -16 26 -31 59 -33 74 -25 185 -26
211 -13 266 7 30 20 61 28 68 14 11 56 25 154 50 26 7 53 18 60 25 6 6 18 12
25 12 18 0 83 42 107 69 11 11 25 21 32 21 16 0 118 102 150 150 13 19 35 51
48 70 14 19 25 40 25 46 1 7 15 41 33 75 22 45 32 79 33 112 0 30 5 51 14 56
20 13 21 242 1 266 -7 9 -13 42 -14 78 -1 51 -5 66 -24 85 -15 15 -21 29 -17
40 4 9 10 26 13 37 3 11 12 26 19 33 7 8 13 36 13 67 0 31 5 55 12 57 6 2 12
21 12 41 1 20 7 42 14 49 7 7 12 23 12 38 0 14 10 44 22 68 l23 42 60 0 c57 0
62 -2 88 -35 15 -19 36 -35 47 -35 10 0 22 -4 25 -10 3 -5 18 -10 32 -10 13 0
37 -6 51 -14 43 -22 104 -45 147 -55 92 -21 183 -62 214 -95 28 -30 90 -36
110 -12 7 8 26 18 43 21 25 6 35 18 63 76 29 61 32 74 23 102 -6 18 -13 45
-16 62 -2 16 -13 43 -23 60 -18 28 -23 30 -78 30 -42 0 -64 5 -78 18 -11 9
-29 17 -41 17 -12 0 -36 9 -54 20 -18 11 -40 20 -49 20 -9 0 -29 6 -44 14 -19
10 -44 13 -75 9 -35 -4 -50 -1 -62 11 -22 21 -146 22 -174 1 -25 -19 -88 -19
-107 -1 -11 11 -17 12 -26 3 -9 -9 -16 -9 -31 1 -13 8 -65 12 -154 12 -147 0
-166 3 -166 30 0 35 -22 39 -203 38 -123 -1 -182 3 -189 10 -7 7 -29 12 -49
12 -45 0 -55 12 -35 42 9 12 16 32 16 43 0 11 14 40 30 64 17 24 30 49 30 56
0 7 14 29 30 50 17 21 30 43 30 50 0 6 10 20 21 31 12 10 33 37 48 59 29 45
163 175 201 195 14 7 29 19 33 26 4 8 13 14 18 14 6 0 25 11 42 24 18 13 60
34 94 46 35 12 68 29 74 36 16 20 113 19 129 -1z m-1067 -83 c8 -11 -29 -52
-47 -52 -9 0 -37 -20 -62 -45 -24 -25 -62 -56 -84 -70 -43 -27 -90 -74 -90
-90 0 -6 -18 -29 -41 -50 -38 -37 -87 -101 -116 -150 -24 -42 -93 -190 -93
-199 0 -5 -10 -16 -22 -27 -17 -13 -38 -18 -79 -17 -30 0 -65 -4 -76 -10 -11
-6 -23 -9 -26 -5 -4 3 -40 -2 -82 -12 -41 -10 -78 -15 -82 -11 -9 8 57 134 74
140 7 3 13 11 13 18 0 7 25 40 55 73 30 33 55 64 55 68 0 14 63 77 99 99 18
12 54 41 78 65 25 23 50 43 57 43 7 0 23 11 36 25 13 14 29 25 35 25 7 0 20 9
30 20 10 11 26 20 37 20 10 0 18 3 18 8 0 4 41 27 90 51 50 24 93 48 96 52 3
5 15 9 28 9 12 0 31 7 42 15 21 16 50 20 57 7z m702 -755 c1 -24 9 -43 21 -52
18 -14 18 -16 2 -25 -10 -6 -21 -28 -24 -49 -8 -47 28 -43 -369 -41 -281 2
-716 -27 -757 -50 -10 -6 -60 -10 -112 -10 -59 0 -103 -5 -120 -14 -18 -9 -49
-12 -99 -8 -54 3 -81 0 -103 -11 -32 -17 -229 -27 -251 -14 -8 5 -13 32 -13
73 0 61 2 67 32 95 18 16 43 29 56 29 13 0 30 7 39 15 8 8 27 14 43 13 15 -1
36 4 46 12 9 8 40 16 68 17 95 4 181 15 192 24 7 5 57 10 111 11 55 0 110 6
121 12 15 8 184 11 569 11 l547 0 1 -38z m308 -36 c7 -5 30 -11 52 -13 37 -3
40 -5 43 -37 7 -75 -24 -104 -74 -66 -12 9 -43 14 -89 15 -44 0 -78 5 -91 14
-11 8 -36 16 -55 18 -31 3 -34 6 -32 32 1 16 4 35 7 41 5 15 222 11 239 -4z
m323 2 c13 -13 36 -19 88 -20 39 -1 79 -6 91 -11 31 -14 87 -33 121 -42 18 -4
42 -15 55 -24 13 -9 31 -16 40 -16 23 0 29 -32 9 -47 -11 -8 -12 -15 -4 -23
16 -16 46 -1 39 20 -4 11 1 19 12 23 10 2 26 8 35 12 35 14 75 -139 45 -173
-8 -9 -17 -26 -21 -37 -3 -11 -27 -30 -53 -43 l-47 -23 -30 30 c-17 16 -44 33
-60 37 -16 4 -48 17 -70 30 -23 13 -51 24 -63 24 -12 0 -25 5 -28 10 -3 6 -17
10 -30 10 -13 0 -27 5 -30 10 -3 6 -19 10 -35 10 -16 0 -31 4 -35 9 -3 5 -20
12 -38 16 -49 10 -137 54 -137 68 0 7 -13 26 -30 42 -37 35 -37 43 -3 72 19
17 39 23 73 23 30 0 52 6 60 15 16 19 25 19 46 -2z m-2490 -118 c3 -8 -4 -35
-16 -60 l-22 -45 -91 0 c-68 0 -95 -4 -108 -16 -27 -25 -59 -3 -59 41 0 30 4
35 28 40 15 3 46 10 70 15 23 6 57 10 76 10 18 0 39 7 46 15 16 19 69 20 76 0z
m1951 0 c6 -10 31 -15 88 -17 76 -3 80 -4 83 -27 2 -13 -1 -27 -7 -31 -6 -3
-14 -17 -16 -30 -2 -13 -9 -28 -15 -34 -5 -5 -10 -26 -10 -46 0 -19 -6 -44
-14 -55 -7 -11 -16 -38 -19 -60 -16 -106 -19 -115 -38 -115 -11 0 -19 7 -19
16 0 43 -148 217 -213 251 -17 8 -37 22 -45 29 -7 8 -19 14 -26 14 -8 0 -19 7
-26 15 -7 8 -22 15 -35 15 -29 0 -37 10 -24 27 10 11 15 11 35 -2 36 -24 126
-30 160 -12 16 9 41 18 57 22 15 3 27 11 27 18 0 32 43 48 57 22z m-437 -65
c30 -7 61 -17 69 -23 8 -7 45 -28 82 -47 48 -24 97 -63 164 -129 52 -52 95
-99 95 -106 0 -6 12 -22 26 -36 14 -13 30 -33 35 -44 5 -11 15 -28 21 -37 11
-15 8 -22 -19 -45 -18 -16 -33 -37 -35 -47 -5 -34 -27 -29 -33 8 -14 74 -147
242 -205 261 -11 4 -20 10 -20 15 0 14 -76 50 -105 50 -14 0 -25 5 -25 10 0 6
-8 10 -17 10 -10 0 -31 7 -47 15 -32 17 -290 22 -300 6 -4 -5 -24 -12 -46 -16
-22 -4 -42 -11 -46 -16 -3 -5 -15 -9 -28 -9 -25 0 -102 -51 -124 -82 -7 -10
-19 -18 -27 -18 -16 0 -85 -67 -85 -83 0 -7 -12 -25 -28 -42 -36 -39 -74 -122
-67 -145 3 -11 0 -20 -10 -24 -9 -3 -15 -18 -15 -36 0 -17 -7 -47 -15 -67 -21
-49 -20 -166 1 -184 11 -9 14 -22 10 -42 -7 -35 53 -187 90 -228 13 -14 24
-30 24 -36 0 -15 112 -119 138 -127 12 -4 22 -11 22 -16 0 -4 12 -13 28 -19
15 -6 42 -20 61 -31 18 -12 52 -23 75 -27 22 -3 46 -9 53 -15 14 -11 239 -5
303 9 55 12 158 66 177 93 8 11 23 20 33 20 22 0 140 114 140 135 0 8 4 16 9
19 11 7 51 88 51 104 0 7 9 12 20 12 13 0 20 7 20 19 0 33 11 51 31 51 28 0
27 -56 -2 -65 l-21 -7 21 -19 c23 -21 18 -42 -14 -69 -9 -8 -27 -34 -40 -59
-24 -48 -179 -211 -200 -211 -7 0 -20 -9 -29 -19 -29 -32 -143 -82 -201 -88
-30 -3 -60 -12 -66 -19 -8 -10 -37 -14 -99 -14 -73 0 -90 3 -104 19 -23 26
-69 35 -96 21 -33 -18 -18 -35 36 -40 39 -4 50 -9 52 -25 6 -29 19 -40 34 -28
20 16 96 25 104 12 3 -6 1 -16 -5 -22 -6 -6 -11 -23 -11 -38 0 -41 -17 -44
-49 -10 -33 35 -37 37 -44 17 -3 -8 3 -24 14 -37 10 -12 19 -28 19 -35 0 -7 5
-14 12 -16 6 -2 13 -33 15 -73 2 -43 9 -75 19 -86 10 -11 13 -26 8 -43 -4 -18
0 -35 12 -54 10 -15 23 -34 29 -43 29 -47 53 -78 87 -111 58 -56 50 -85 -18
-67 -86 23 -149 44 -159 51 -5 4 -18 8 -30 8 -12 0 -30 7 -41 15 -10 8 -27 15
-37 15 -10 0 -37 10 -60 22 -23 12 -49 25 -57 29 -200 102 -223 115 -231 137
-6 16 -14 22 -25 18 -19 -7 -48 7 -92 45 -18 16 -38 29 -45 29 -16 0 -257 243
-257 260 0 7 -15 30 -32 51 -69 81 -88 107 -89 120 0 8 -9 28 -20 44 -10 17
-21 37 -25 45 -3 8 -19 41 -35 73 -16 32 -29 66 -29 76 0 9 -7 26 -15 37 -8
10 -15 32 -15 47 0 16 -5 38 -12 50 -14 27 -27 80 -33 137 -3 25 -10 63 -16
85 -12 47 -6 455 8 560 15 113 17 115 126 115 65 1 98 5 111 15 14 11 45 15
104 15 53 0 102 6 131 17 33 11 58 14 86 8 36 -6 38 -8 18 -16 -13 -5 -23 -14
-23 -21 0 -7 -16 -23 -35 -36 -38 -24 -43 -37 -21 -45 9 -4 25 8 41 29 14 19
35 34 45 34 11 0 24 8 29 19 6 10 25 24 43 30 18 7 41 17 50 22 10 5 29 9 42
9 38 0 22 -33 -27 -58 -50 -26 -187 -154 -187 -176 0 -8 -8 -21 -18 -28 -30
-22 -113 -206 -119 -265 -3 -29 -12 -58 -19 -64 -20 -16 -20 -222 -1 -241 8
-7 16 -43 19 -78 4 -47 16 -86 43 -140 52 -105 59 -118 84 -144 11 -12 21 -27
21 -33 0 -6 7 -16 15 -23 9 -7 14 -20 13 -29 -6 -27 70 -91 109 -91 10 0 26
-7 36 -15 11 -7 37 -17 60 -20 22 -4 47 -13 54 -20 20 -21 65 -4 76 28 5 15 6
34 3 42 -7 20 -65 20 -72 0 -4 -8 -18 -15 -34 -15 -105 0 -280 207 -350 414
-11 33 -20 75 -20 95 0 20 -7 54 -15 76 -19 52 -19 116 0 141 8 10 15 39 15
65 0 25 4 49 8 55 8 8 35 86 38 109 3 24 34 82 53 99 12 11 21 25 21 31 0 19
151 171 188 189 17 9 32 23 32 31 0 8 8 15 18 15 10 0 22 4 28 8 5 5 37 19 71
31 53 20 82 23 212 23 113 1 155 4 168 15 19 14 38 13 133 -7z m-1488 -96 c21
-15 38 -29 39 -33 11 -86 -5 -121 -54 -121 -18 0 -42 7 -53 15 -10 8 -31 15
-45 15 -60 0 -232 81 -225 105 1 6 30 12 64 15 33 3 67 11 74 18 7 7 40 12 87
12 65 0 80 -4 113 -26z m1421 -83 c6 -6 25 -11 43 -11 33 0 123 -40 159 -71
11 -9 30 -20 42 -23 22 -7 143 -131 143 -147 0 -4 13 -22 30 -40 30 -33 47
-83 59 -179 4 -30 12 -65 19 -77 16 -29 15 -64 -3 -87 -8 -11 -15 -40 -15 -65
0 -75 -52 -211 -81 -211 -5 0 -11 -11 -15 -24 -3 -14 -29 -46 -57 -73 l-52
-48 -100 3 c-55 1 -107 5 -116 8 -19 5 -52 -23 -44 -37 4 -5 49 -9 101 -9 52
0 94 -4 94 -9 0 -8 -42 -30 -115 -61 -65 -28 -374 -26 -391 1 -3 5 -14 9 -24
9 -26 0 -157 90 -216 148 -74 75 -112 152 -81 166 6 3 2 3 -10 0 -19 -4 -23
-1 -23 18 0 13 -9 41 -20 63 -16 32 -20 59 -20 147 0 98 2 108 21 118 19 11
19 13 5 29 -20 22 -11 56 41 161 26 53 56 93 102 138 35 34 68 62 72 62 4 0
27 13 51 29 24 15 54 31 68 34 32 6 89 26 117 41 29 14 200 13 216 -3z m575
-344 c3 -22 -1 -27 -17 -27 -17 0 -21 6 -21 31 0 24 4 30 18 27 10 -2 18 -14
20 -31z m21 -66 c6 -10 8 -21 5 -23 -2 -3 2 -11 11 -18 19 -16 19 -49 0 -56
-19 -8 -19 -23 0 -44 14 -15 13 -19 -5 -40 -18 -21 -18 -24 -4 -35 14 -10 15
-17 4 -51 -7 -21 -14 -45 -16 -51 -4 -15 -52 -17 -74 -3 -12 8 -12 11 3 28 9
10 17 35 17 54 0 20 7 41 16 49 20 17 13 55 -21 109 -26 41 -29 57 -19 84 9
23 70 21 83 -3z m-1533 -1123 c35 -34 64 -68 64 -76 0 -14 -3 -18 -60 -82 -22
-24 -40 -48 -40 -54 0 -5 -19 -30 -42 -57 -24 -26 -49 -54 -56 -63 -14 -18
-49 -14 -94 12 -26 15 -27 14 -66 -27 -22 -24 -45 -40 -51 -37 -16 10 -13 62
4 76 8 7 15 16 15 21 0 5 16 29 35 55 19 25 35 52 35 59 0 8 20 33 45 56 25
23 45 46 45 51 0 14 83 128 93 128 4 0 37 -28 73 -62z m161 -138 c13 -16 30
-30 37 -30 7 0 23 -11 36 -25 13 -14 29 -25 36 -25 7 0 19 -6 27 -14 23 -23
81 -56 99 -56 9 0 18 -4 20 -8 4 -11 185 -102 223 -112 31 -8 84 -27 120 -41
11 -4 29 -9 40 -11 25 -4 33 -46 11 -54 -9 -4 -22 -1 -29 4 -7 6 -51 14 -98
18 -46 4 -91 11 -101 15 -9 5 -38 11 -65 14 -26 3 -57 9 -68 12 -11 4 -28 6
-37 4 -10 -1 -28 5 -40 13 -12 9 -39 16 -60 16 -21 0 -38 5 -38 10 0 6 -13 10
-28 10 -16 0 -37 7 -48 15 -10 8 -29 15 -42 15 -12 0 -34 7 -47 16 -29 19 -58
12 -79 -21 -19 -29 -66 -34 -86 -10 -7 8 -21 15 -31 15 -28 0 -24 8 26 52 25
22 45 45 45 52 0 7 16 27 35 46 19 19 35 44 35 56 0 24 34 53 63 53 10 1 30
-12 44 -29z m1868 -210 c4 -6 1 -17 -5 -25 -7 -8 -11 -15 -9 -16 2 0 25 -2 50
-4 56 -3 69 -10 69 -35 0 -11 8 -24 19 -29 10 -6 21 -20 24 -31 4 -18 2 -20
-16 -14 -44 13 -132 60 -148 78 -15 19 -16 18 -35 -9 -10 -15 -40 -51 -66 -80
-27 -28 -48 -61 -48 -72 0 -13 -14 -27 -44 -43 -29 -14 -46 -30 -48 -44 -2
-16 -13 -23 -45 -30 -59 -12 -73 -4 -73 42 0 48 8 57 31 36 17 -16 19 -16 25
0 3 9 2 22 -4 29 -19 24 -22 64 -7 77 8 7 15 18 15 24 0 21 51 66 75 66 13 0
26 4 29 9 3 4 23 11 44 15 22 3 45 13 52 21 7 8 22 15 34 15 11 0 30 7 40 15
23 18 33 19 41 5z m-2182 -51 c10 -6 26 -7 36 -4 10 3 24 -1 31 -10 7 -8 26
-15 42 -15 38 0 45 -22 18 -60 -23 -33 -45 -37 -74 -15 -11 8 -35 15 -54 15
-24 0 -50 11 -83 35 -59 42 -71 44 -67 8 2 -16 -1 -28 -7 -28 -14 0 -9 59 5
63 7 3 21 15 32 28 20 22 22 22 62 8 22 -9 49 -20 59 -25z m302 -17 c22 -14
111 -41 135 -42 14 0 34 -6 45 -14 11 -7 38 -16 60 -20 22 -4 65 -11 95 -17
30 -6 87 -12 125 -14 39 -1 81 -7 94 -14 26 -14 168 -18 248 -7 45 7 54 5 70
-13 17 -20 24 -21 114 -15 94 7 97 6 112 -17 23 -36 32 -95 15 -105 -33 -21
-88 -34 -152 -34 -52 0 -74 -4 -88 -17 -19 -17 -21 -17 -50 0 -21 12 -52 17
-108 17 -43 0 -81 4 -84 8 -3 4 1 19 9 33 22 38 45 91 45 101 0 19 -45 3 -49
-17 -2 -11 -14 -31 -27 -44 -14 -13 -27 -35 -30 -48 -8 -30 -48 -41 -72 -20
-9 8 -42 17 -72 20 -30 3 -82 11 -115 18 -33 6 -82 13 -108 14 -26 2 -53 8
-60 13 -7 6 -33 13 -60 17 -26 4 -50 11 -53 16 -3 5 -17 9 -32 9 -40 0 -141
33 -147 48 -3 7 2 26 10 42 8 16 15 39 15 52 0 13 7 34 16 47 14 19 22 22 53
16 20 -4 40 -10 46 -13z m1540 -51 c3 -5 -4 -26 -16 -45 -15 -26 -28 -36 -45
-36 -30 0 -44 -29 -21 -42 23 -12 21 -51 -3 -73 -27 -24 -25 -43 4 -51 13 -3
33 -17 45 -30 11 -13 25 -24 30 -24 20 0 106 42 114 56 10 18 56 18 63 -1 3
-8 21 -23 40 -34 19 -11 37 -29 41 -38 3 -10 29 -43 58 -73 50 -53 105 -146
105 -176 0 -31 32 -64 61 -64 15 0 31 -4 34 -10 3 -5 41 -10 84 -10 58 0 82
-4 91 -15 7 -8 21 -15 32 -15 21 0 59 -40 51 -52 -7 -13 -42 -9 -68 8 -35 23
-577 22 -612 -1 -12 -8 -31 -15 -43 -15 -11 0 -21 -4 -21 -10 -1 -5 -2 -16 -3
-22 0 -7 -11 -14 -23 -16 -19 -3 -23 1 -23 21 0 13 -9 50 -20 83 -11 32 -20
73 -20 89 0 17 -7 39 -15 49 -8 11 -15 38 -15 61 0 23 -5 46 -10 51 -6 6 -12
54 -14 107 -3 96 -13 127 -43 127 -7 0 -16 -7 -19 -15 -5 -12 -21 -14 -81 -11
-61 4 -80 9 -100 27 -13 13 -23 32 -21 44 3 18 11 20 81 23 88 3 106 22 20 22
-39 0 -62 5 -75 17 -16 14 -23 15 -39 5 -15 -10 -23 -10 -39 0 -11 7 -20 16
-20 20 0 12 94 28 193 32 86 3 97 2 97 -13 0 -10 -11 -28 -25 -41 l-26 -24 23
-18 c13 -10 33 -18 45 -18 27 0 46 30 32 51 -15 25 -11 69 9 75 9 3 28 11 42
19 30 16 57 18 65 6z m-748 -37 c2 -6 -2 -14 -9 -16 -19 -8 -60 10 -53 22 9
14 57 9 62 -6z m184 -7 c-5 -5 -18 -7 -28 -3 -14 6 -15 9 -4 16 19 11 46 1 32
-13z m940 6 c47 -15 69 -32 166 -133 62 -63 113 -121 113 -128 0 -7 15 -27 34
-45 19 -18 37 -42 41 -55 3 -12 22 -43 41 -67 19 -25 34 -49 34 -54 0 -5 7
-14 15 -21 20 -17 19 -43 -3 -63 -24 -22 -215 -23 -246 -1 -11 8 -35 14 -53
14 -36 0 -63 22 -63 51 0 51 -62 140 -170 246 -75 74 -110 115 -110 131 0 12
5 22 10 22 14 0 85 69 99 98 14 26 23 27 92 5z m233 -13 c19 -17 79 -76 133
-132 54 -55 112 -106 130 -114 35 -15 81 -72 66 -83 -5 -3 -13 -18 -17 -33 -3
-16 -11 -28 -16 -28 -6 0 -10 -13 -10 -29 0 -39 -22 -57 -44 -36 -9 9 -16 21
-16 27 0 5 -11 23 -25 40 -14 16 -25 35 -25 42 0 7 -9 21 -20 31 -11 10 -20
24 -20 31 0 7 -13 23 -29 37 -16 13 -36 38 -45 55 -9 17 -41 55 -72 84 -68 64
-82 93 -58 119 23 25 27 24 68 -11z m-882 -248 c-1 -23 -10 -63 -20 -89 -16
-42 -22 -49 -67 -65 -36 -13 -69 -18 -115 -15 -132 9 -190 37 -190 94 0 12 -5
25 -10 28 -20 13 2 25 44 25 24 0 56 6 71 14 16 9 41 12 61 9 24 -4 40 -1 53
11 27 24 68 35 126 33 l50 -2 -3 -43z m1293 -153 c22 -12 53 -34 69 -50 16
-16 39 -32 50 -35 23 -8 166 -152 166 -169 0 -6 16 -26 35 -45 19 -19 35 -42
35 -50 0 -9 4 -20 9 -25 22 -24 81 -152 81 -176 0 -15 8 -41 17 -58 14 -24 15
-33 6 -42 -10 -10 -18 0 -39 47 -40 88 -74 121 -74 70 0 -13 7 -26 15 -30 8
-3 15 -15 15 -27 0 -13 8 -23 21 -26 15 -4 19 -11 15 -26 -3 -12 3 -35 14 -52
12 -20 19 -50 19 -85 1 -89 -10 -224 -19 -235 -14 -17 -24 -105 -11 -105 15 0
32 36 25 54 -4 10 0 18 10 22 13 5 16 21 16 75 0 58 3 70 20 79 13 7 20 21 20
40 0 17 5 30 10 30 6 0 8 -10 5 -22 -8 -39 -13 -271 -6 -321 7 -55 25 -63 29
-13 3 38 24 53 42 30 7 -8 19 -14 26 -14 21 0 17 -20 -12 -62 -27 -39 -38 -45
-48 -29 -3 5 -42 7 -86 4 l-79 -6 6 50 c3 31 1 58 -7 73 -9 17 -12 83 -11 235
1 180 -1 214 -14 225 -9 7 -15 29 -15 52 0 29 -8 50 -30 78 -16 21 -30 43 -30
50 0 6 -14 24 -31 40 -35 31 -33 55 4 37 12 -5 30 -27 40 -49 10 -21 25 -38
33 -38 21 0 17 38 -6 50 -11 6 -23 23 -26 38 -4 15 -16 33 -26 40 -10 7 -18
19 -18 26 0 16 -70 92 -91 99 -13 4 -15 1 -11 -15 6 -25 -16 -21 -32 5 -8 13
-8 20 2 26 20 12 11 55 -13 59 -11 2 -24 9 -30 16 -23 27 -69 56 -91 56 -39 0
-38 -20 5 -56 23 -20 41 -41 41 -49 0 -7 16 -27 35 -44 19 -17 35 -37 35 -46
0 -19 40 -65 57 -65 7 0 13 -10 13 -23 0 -13 11 -34 25 -47 14 -13 25 -29 25
-36 0 -6 7 -18 17 -25 23 -20 73 -129 73 -162 0 -15 7 -38 15 -51 13 -19 15
-53 13 -176 -2 -101 -7 -155 -14 -157 -7 -2 -14 17 -17 48 -4 29 -23 86 -43
128 -20 42 -47 99 -60 126 -12 28 -34 63 -48 79 -14 16 -26 33 -26 37 0 22
-71 107 -185 219 -116 115 -147 139 -213 169 -33 15 -18 31 28 31 21 0 42 5
45 11 4 6 13 8 21 5 30 -11 45 5 43 45 -2 21 2 44 9 51 7 7 12 22 12 34 0 21
35 74 48 74 4 0 25 -10 47 -21z m-615 -293 c0 -2 -38 -42 -85 -88 -76 -76 -85
-89 -85 -122 0 -22 -9 -49 -22 -67 -20 -27 -27 -30 -58 -24 -19 4 -41 11 -48
17 -7 6 -32 8 -57 6 -49 -6 -79 8 -88 41 -6 24 22 84 71 159 28 41 41 52 62
52 14 0 30 4 36 10 5 5 56 11 114 13 58 1 117 4 133 5 15 1 27 0 27 -2z m431
-24 c7 -17 5 -22 -9 -22 -22 0 -47 36 -29 43 19 8 30 3 38 -21z m412 -37 c7
-16 -8 -29 -23 -20 -15 9 -12 35 4 35 8 0 16 -7 19 -15z m-2722 -51 c23 -22
26 -30 19 -61 -5 -19 -13 -40 -18 -45 -13 -13 -47 -1 -79 28 -14 13 -32 24
-39 24 -7 0 -18 8 -23 18 -8 15 -4 21 22 35 29 14 54 23 81 26 6 0 22 -11 37
-25z m-501 -9 c59 -3 119 -12 137 -20 17 -8 51 -15 76 -15 25 0 49 -4 52 -10
3 -5 15 -10 26 -10 53 0 219 -118 219 -156 0 -7 -9 -16 -20 -19 -11 -3 -20
-11 -20 -16 0 -5 -11 -9 -23 -9 -13 0 -50 -9 -82 -20 -32 -11 -77 -20 -100
-20 -22 0 -46 -5 -53 -12 -6 -6 -36 -13 -66 -15 -29 -2 -65 -9 -79 -16 -16 -9
-53 -12 -99 -11 -49 2 -80 -2 -94 -11 -23 -15 -121 -20 -429 -25 -117 -1 -197
-7 -229 -16 -40 -11 -51 -11 -58 -2 -12 21 -9 45 7 52 24 9 21 151 -5 204 -11
23 -24 42 -29 42 -4 0 -14 12 -21 26 -8 14 -27 33 -42 42 -15 9 -28 22 -28 30
0 10 24 12 123 6 78 -4 131 -2 147 5 25 10 470 8 690 -4z m-969 -69 c84 -56
129 -200 86 -273 -10 -18 -22 -33 -25 -33 -4 0 -25 11 -47 25 -39 24 -75 32
-75 17 0 -14 62 -62 79 -62 10 0 26 -9 36 -20 10 -11 24 -20 32 -20 14 0 17
-9 5 -25 -7 -11 -137 -75 -151 -75 -4 0 -18 -11 -30 -24 -13 -13 -34 -27 -47
-30 -13 -4 -24 -11 -24 -16 0 -6 -6 -10 -14 -10 -16 0 -66 -45 -66 -60 0 -5
-11 -10 -25 -10 -14 0 -28 -7 -31 -15 -4 -8 -12 -15 -20 -15 -8 0 -14 7 -14
15 0 8 5 15 11 15 13 0 48 41 49 57 0 6 23 33 50 59 28 26 50 54 50 61 0 8 23
37 51 65 46 46 49 52 40 79 -8 23 -7 30 7 38 21 12 7 30 -43 57 -27 14 -37 16
-47 6 -9 -9 -8 -16 5 -30 23 -26 21 -32 -11 -32 -48 0 -111 52 -91 76 8 10 17
10 45 -3 18 -9 36 -14 39 -11 11 10 -6 35 -33 49 -15 7 -34 18 -42 25 -8 6
-27 14 -41 18 -15 3 -37 14 -49 24 -37 30 -17 53 90 100 35 16 66 19 140 13
51 -3 75 -11 111 -35z m3564 -117 c5 -6 4 -9 -5 -9 -7 0 -22 -7 -32 -17 -16
-14 -18 -33 -18 -139 0 -121 0 -124 23 -130 13 -3 41 -4 63 -2 l39 3 0 113 c0
97 -3 116 -17 126 -10 7 -18 21 -18 31 0 16 8 17 88 10 48 -4 90 -9 95 -12 10
-6 9 -40 -3 -80 -43 -144 -45 -165 -15 -197 22 -23 25 -37 27 -104 1 -42 4
-129 6 -192 7 -218 5 -405 -6 -460 -6 -30 -14 -76 -18 -103 -4 -26 -11 -50
-15 -53 -5 -3 -9 -33 -9 -68 0 -39 -5 -69 -15 -82 -17 -22 -21 -154 -5 -154 6
0 10 -14 10 -30 l0 -31 -62 3 c-38 2 -63 8 -66 16 -2 8 5 11 20 10 19 -3 24 2
26 27 2 17 9 36 15 44 23 27 48 390 32 441 l-12 35 -102 3 -102 3 -16 -38
c-33 -74 -44 -375 -18 -510 6 -32 5 -33 -29 -33 -66 0 -66 -1 -66 139 -1 90
-5 133 -15 151 -12 20 -14 87 -14 355 0 268 2 335 14 355 9 16 14 55 15 110 0
108 6 127 41 146 17 9 29 23 29 35 0 11 9 38 20 60 18 35 19 42 6 60 -9 13
-12 34 -9 58 4 26 0 41 -11 50 -26 22 -18 41 27 61 41 18 81 18 102 -1z m-181
-24 c8 -9 13 -21 10 -29 -3 -7 2 -19 11 -26 17 -14 21 -95 5 -120 -8 -12 -10
-12 -16 3 -3 9 -4 23 -1 31 3 8 -3 22 -14 32 -10 9 -19 25 -19 34 0 10 -9 29
-21 44 -11 14 -17 30 -14 36 9 15 41 12 59 -5z m216 -124 c0 -106 -8 -125 -41
-95 -16 14 -19 31 -19 100 0 70 3 83 18 87 42 11 42 10 42 -92z m-3888 28 c28
-22 64 -43 79 -46 37 -7 70 -43 63 -68 -3 -11 -32 -42 -64 -70 -32 -27 -61
-59 -64 -71 -3 -11 -18 -34 -33 -50 -15 -16 -34 -41 -43 -55 -13 -24 -65 -96
-88 -124 -5 -6 -21 -33 -37 -60 -16 -28 -36 -59 -45 -70 -21 -24 -110 -206
-110 -224 0 -7 -6 -25 -14 -39 -15 -28 -42 -115 -52 -169 -6 -29 -9 -32 -32
-26 -14 3 -44 16 -66 29 -23 13 -57 24 -77 24 -44 0 -67 21 -44 40 8 7 15 23
15 36 0 12 4 25 9 28 5 3 14 27 20 52 7 25 18 53 26 61 8 8 15 25 15 39 0 13
11 42 25 64 14 22 25 46 25 54 0 8 5 18 11 21 5 4 15 17 20 28 6 12 21 40 34
62 13 22 39 73 59 113 19 39 40 72 45 72 6 0 13 11 17 24 3 13 17 34 30 47 13
12 24 28 24 34 0 6 7 20 15 30 32 43 65 91 74 110 5 11 18 28 30 39 11 10 30
38 42 62 11 24 25 44 30 44 5 0 33 -18 61 -41z m4756 -1 c-3 -35 -28 -52 -28
-20 0 28 10 52 22 52 5 0 8 -14 6 -32z m-13 -574 c11 -8 38 -14 61 -14 44 0
60 -12 88 -67 19 -38 21 -79 3 -86 -10 -4 -62 -98 -81 -147 -3 -8 -10 -22 -15
-30 -8 -13 -53 -108 -75 -160 -3 -8 -10 -22 -15 -30 -15 -26 -54 -144 -53
-164 1 -10 -6 -25 -14 -33 -8 -9 -14 -34 -14 -63 0 -27 -4 -52 -10 -55 -5 -3
-10 -29 -10 -57 0 -30 -6 -58 -14 -67 -10 -11 -15 -46 -17 -106 -2 -58 -9
-103 -20 -125 -9 -19 -32 -68 -50 -107 -53 -114 -58 -103 -47 102 5 83 13 211
18 285 6 74 13 185 16 245 3 61 9 114 15 119 5 6 9 55 9 111 0 67 4 105 13
113 6 7 15 54 19 105 15 186 23 228 43 243 22 17 119 9 150 -12z m-797 -371
c15 -38 17 -162 4 -195 -6 -15 -9 -56 -6 -94 3 -48 1 -73 -10 -89 -8 -12 -16
-35 -18 -50 -4 -36 -21 -42 -48 -15 -16 16 -28 19 -54 15 -21 -4 -35 -2 -42 7
-12 17 4 313 21 395 9 39 33 53 90 53 48 0 53 -2 63 -27z m-114 -474 c-8 -14
-24 -10 -24 6 0 9 6 12 15 9 8 -4 12 -10 9 -15z m20 -239 c5 -5 36 -10 67 -10
49 0 59 -3 64 -20 3 -10 1 -29 -5 -40 -6 -12 -18 -44 -26 -71 -8 -27 -19 -49
-23 -49 -5 0 -12 -16 -15 -35 -4 -19 -17 -56 -30 -82 -13 -27 -29 -68 -37 -93
-7 -25 -23 -68 -36 -97 -13 -28 -23 -58 -23 -67 0 -8 -4 -18 -10 -21 -5 -3
-10 -16 -10 -29 0 -12 -5 -27 -11 -33 -6 -6 -17 -42 -24 -80 -16 -82 -34 -152
-46 -175 -5 -10 -10 -67 -11 -128 0 -60 -5 -110 -9 -110 -16 0 -49 73 -49 109
0 21 -7 52 -15 67 -21 40 -20 308 1 325 10 8 14 35 14 88 1 51 5 82 15 95 9
12 15 42 15 77 0 32 4 60 9 63 4 3 12 29 15 58 16 118 19 134 32 153 8 11 14
29 14 42 0 12 5 25 10 28 6 3 10 17 10 30 0 21 3 23 52 19 28 -2 56 -8 62 -14z"/>
<path d="M5844 6505 c-17 -8 -44 -28 -60 -46 -16 -17 -37 -39 -46 -47 -10 -9
-18 -25 -18 -35 0 -9 -7 -20 -15 -23 -9 -4 -15 -19 -15 -35 0 -17 -6 -32 -15
-35 -8 -4 -15 -16 -15 -28 0 -12 -4 -26 -9 -31 -15 -15 -40 -147 -34 -177 3
-14 -1 -36 -8 -49 -16 -30 -21 -217 -8 -284 20 -101 30 -140 46 -175 26 -59
31 -74 38 -97 4 -13 10 -23 15 -23 5 0 16 -13 25 -30 9 -16 22 -30 29 -30 7 0
19 -7 27 -16 24 -29 89 -56 118 -48 14 4 32 8 40 10 14 3 58 40 102 89 34 37
79 119 79 145 0 10 4 21 9 24 5 4 12 24 16 46 4 22 11 42 16 46 5 3 9 22 9 43
0 21 6 44 14 50 16 14 27 120 27 276 1 129 -9 211 -27 226 -8 6 -14 22 -14 35
0 54 -115 188 -189 220 -41 17 -96 17 -137 -1z m85 -39 c7 -8 27 -18 44 -21
60 -12 65 -16 91 -68 23 -44 26 -63 24 -121 -2 -48 1 -70 10 -73 8 -3 12 9 12
41 0 24 5 48 10 51 6 3 10 -2 10 -12 0 -10 8 -30 17 -43 15 -21 17 -43 14
-135 -1 -60 -7 -117 -11 -125 -5 -8 -5 -21 -1 -30 17 -32 20 -100 5 -114 -9
-9 -14 -36 -14 -69 0 -36 -5 -59 -15 -67 -8 -7 -15 -20 -15 -30 0 -10 -13 -45
-30 -78 -16 -34 -30 -70 -30 -81 0 -19 -35 -61 -52 -61 -4 0 -7 10 -5 22 1 15
-4 23 -17 26 -16 3 -18 0 -12 -25 12 -52 11 -56 -20 -78 -31 -21 -68 -24 -115
-10 -34 11 -78 56 -79 82 0 12 -13 35 -30 51 -16 17 -30 38 -30 47 0 9 23 39
50 66 28 27 50 53 50 57 0 5 13 23 29 41 29 33 32 71 6 71 -13 0 -45 -53 -45
-74 0 -11 -90 -106 -101 -106 -13 0 -28 55 -33 120 -2 36 -9 85 -14 109 -8 34
-6 57 5 95 21 73 27 81 55 78 27 -3 54 21 43 38 -3 5 -24 10 -45 10 -47 0 -55
11 -36 48 8 16 12 39 9 51 -3 13 1 29 10 39 8 9 23 43 33 76 10 32 31 72 46
88 16 17 28 33 28 37 0 4 18 23 41 42 60 50 88 59 108 35z"/>
<path d="M5964 6399 c-3 -6 -2 -15 2 -19 12 -12 38 5 30 19 -9 14 -23 14 -32
0z"/>
<path d="M5990 6264 c0 -88 -10 -124 -35 -124 -8 0 -15 -5 -15 -10 0 -19 28
-22 54 -5 25 17 26 21 26 121 0 86 -3 104 -15 104 -12 0 -15 -16 -15 -86z"/>
<path d="M5850 6305 c0 -8 4 -15 9 -15 5 0 12 -13 16 -29 6 -29 28 -46 46 -35
15 9 10 20 -25 58 -38 40 -46 43 -46 21z"/>
<path d="M5726 6241 c-7 -11 3 -41 15 -41 4 0 16 -13 25 -29 10 -16 26 -32 36
-34 11 -3 18 -14 18 -30 0 -28 27 -44 44 -27 8 8 4 16 -13 29 -14 11 -21 23
-17 30 5 7 -8 27 -31 49 -55 54 -70 64 -77 53z"/>
<path d="M5930 6185 c0 -9 5 -15 11 -13 6 2 11 8 11 13 0 5 -5 11 -11 13 -6 2
-11 -4 -11 -13z"/>
<path d="M6070 6114 c-9 -10 -10 -18 -2 -26 12 -12 32 -2 32 17 0 21 -16 26
-30 9z"/>
<path d="M5947 6047 c-15 -17 -26 -41 -25 -52 3 -23 38 -34 38 -12 0 8 9 22
20 32 21 19 24 56 5 62 -5 1 -23 -12 -38 -30z"/>
<path d="M6023 6008 c-31 -23 -43 -55 -43 -120 0 -16 -9 -33 -21 -42 -20 -14
-21 -18 -10 -61 11 -43 10 -48 -11 -66 l-23 -20 23 -15 c14 -11 22 -27 22 -45
0 -33 15 -45 35 -29 19 16 19 51 0 122 -15 61 -10 128 11 128 17 0 27 35 20
66 -4 13 -2 33 4 44 11 21 45 27 55 10 15 -24 24 -7 10 20 -19 36 -30 37 -72
8z"/>
<path d="M5935 5881 c-4 -7 -30 -9 -75 -5 -77 8 -120 0 -120 -20 0 -20 14 -22
108 -18 60 3 82 7 82 17 0 7 6 15 13 18 6 2 9 7 6 11 -4 4 -10 3 -14 -3z"/>
<path d="M5677 5844 c-16 -16 -6 -35 16 -32 12 2 22 10 22 18 0 16 -26 25 -38
14z"/>
<path d="M6020 5831 c0 -6 4 -12 8 -15 13 -8 52 5 46 15 -7 12 -54 12 -54 0z"/>
<path d="M6072 5761 c-18 -11 -11 -45 9 -49 21 -4 31 22 16 42 -8 10 -17 13
-25 7z"/>
<path d="M5900 5644 c0 -9 5 -14 12 -12 18 6 21 28 4 28 -9 0 -16 -7 -16 -16z"/>
<path d="M5828 5559 c-49 -51 -56 -63 -38 -74 15 -9 125 99 116 113 -12 20
-30 12 -78 -39z"/>
<path d="M5708 6485 c-10 -13 -18 -28 -18 -33 0 -5 -12 -22 -26 -37 -14 -15
-30 -37 -35 -49 -5 -11 -13 -28 -17 -36 -29 -51 -42 -84 -42 -104 0 -12 -7
-31 -15 -42 -8 -10 -15 -40 -15 -66 0 -28 -6 -53 -15 -62 -22 -22 -22 -438 0
-456 11 -9 15 -29 13 -71 -2 -62 8 -83 38 -77 24 4 30 50 10 68 -10 8 -16 29
-16 59 0 26 -5 52 -12 59 -8 8 -13 68 -15 183 -3 141 -1 176 12 195 8 13 15
41 15 62 0 23 6 45 15 52 8 7 15 29 15 49 0 20 6 45 14 56 8 11 19 39 26 62 7
24 21 50 32 59 10 10 18 25 18 34 0 9 16 31 36 48 21 19 34 39 32 49 -5 27
-31 26 -50 -2z"/>
<path d="M4800 5183 c-46 -36 -50 -42 -50 -84 0 -47 27 -72 82 -73 35 -1 43 3
47 21 3 12 18 31 34 43 35 28 34 40 -5 84 -38 43 -61 45 -108 9z m78 -61 c7
-45 -58 -70 -78 -31 -9 17 -8 25 6 40 25 27 68 22 72 -9z"/>
<path d="M5450 4915 c0 -16 6 -25 15 -25 9 0 15 9 15 25 0 16 -6 25 -15 25 -9
0 -15 -9 -15 -25z"/>
<path d="M5846 6823 c-12 -12 -6 -73 7 -73 18 0 37 21 37 42 0 18 -33 42 -44
31z"/>
<path d="M5963 6794 c-8 -21 13 -42 28 -27 13 13 5 43 -11 43 -6 0 -13 -7 -17
-16z"/>
<path d="M5905 6730 c-10 -16 4 -30 30 -30 22 0 40 22 28 34 -10 10 -51 7 -58
-4z"/>
<path d="M3525 6714 c-14 -15 -25 -32 -25 -39 0 -7 -7 -18 -15 -25 -8 -7 -15
-21 -15 -32 0 -10 -7 -21 -16 -25 -11 -4 -14 -14 -10 -34 4 -22 -1 -35 -20
-56 -30 -32 -58 -82 -50 -90 3 -3 -3 -20 -13 -39 -21 -40 -17 -87 8 -82 9 2
18 14 19 28 2 13 10 33 18 44 8 11 14 30 14 43 0 12 5 25 10 28 6 3 10 19 10
35 0 15 6 30 14 33 8 3 12 14 10 24 -3 11 3 27 15 37 12 11 21 29 21 42 0 25
34 66 63 77 24 9 33 37 16 48 -21 13 -28 11 -54 -17z"/>
<path d="M3800 6582 c0 -10 6 -24 13 -31 10 -11 10 -14 0 -18 -14 -5 -18 -33
-5 -33 5 0 18 10 30 23 29 31 29 63 0 71 -34 9 -38 8 -38 -12z"/>
<path d="M3682 6298 c2 -13 8 -23 13 -23 6 0 11 10 13 23 2 15 -2 22 -13 22
-11 0 -15 -7 -13 -22z"/>
<path d="M3327 6273 c-4 -3 -7 -80 -7 -170 0 -139 2 -165 16 -170 8 -3 14 -15
13 -27 -3 -38 1 -46 21 -46 23 0 28 41 8 61 -10 9 -12 52 -10 168 3 144 2 158
-15 174 -11 9 -23 14 -26 10z"/>
<path d="M3656 6221 c-9 -14 5 -42 18 -38 15 5 14 39 -1 44 -6 2 -14 0 -17 -6z"/>
<path d="M3573 6083 c-7 -2 -13 -11 -13 -19 0 -10 13 -14 49 -14 28 0 52 4 56
9 12 21 -57 39 -92 24z"/>
<path d="M3384 5835 c-4 -9 -3 -20 2 -24 11 -7 37 -81 34 -96 -5 -25 2 -35 24
-35 15 0 50 -24 96 -65 51 -46 80 -65 99 -65 l26 1 -28 22 c-51 40 -158 150
-168 171 -12 28 -29 53 -56 84 -20 22 -23 23 -29 7z"/>
<path d="M3445 5651 c-6 -11 9 -23 19 -14 9 9 7 23 -3 23 -6 0 -12 -4 -16 -9z"/>
<path d="M3477 5594 c-8 -8 30 -72 61 -103 35 -35 52 -39 52 -12 0 18 -104
124 -113 115z"/>
<path d="M3620 5428 c0 -25 64 -88 90 -88 10 0 20 -7 24 -15 9 -25 38 -18 34
8 -2 16 -9 21 -26 20 -14 -2 -25 4 -29 14 -7 19 -73 83 -85 83 -5 0 -8 -10 -8
-22z"/>
<path d="M4062 5389 c-30 -12 -19 -29 18 -29 33 0 49 18 29 31 -17 10 -18 10
-47 -2z"/>
<path d="M3750 5210 c-13 -25 -4 -63 21 -86 14 -13 16 -20 8 -30 -14 -17 -3
-34 21 -34 25 0 33 28 12 41 -15 9 -17 22 -14 70 4 54 3 59 -16 59 -12 0 -26
-9 -32 -20z"/>
<path d="M4064 5186 c-11 -44 -1 -61 35 -64 34 -4 71 19 71 44 0 23 -31 44
-66 44 -27 0 -35 -5 -40 -24z"/>
<path d="M4095 6550 c-8 -13 5 -57 21 -71 8 -6 14 -22 14 -35 0 -13 8 -27 18
-33 14 -8 15 -14 6 -28 -9 -15 -8 -23 6 -41 10 -12 23 -22 29 -22 7 0 22 -7
34 -15 26 -16 55 -5 41 16 -5 8 -7 24 -5 37 4 34 -16 52 -61 52 -41 0 -50 21
-12 29 10 2 25 8 33 15 8 6 26 12 40 13 14 1 48 5 74 9 53 7 141 -8 196 -35
45 -22 171 -151 171 -176 0 -11 7 -29 15 -39 8 -11 15 -41 15 -67 0 -26 5 -51
11 -55 8 -4 8 -9 0 -17 -6 -6 -11 -35 -11 -63 0 -29 -5 -56 -10 -59 -6 -4 -21
-28 -35 -55 -26 -51 -100 -130 -122 -130 -7 0 -30 -11 -51 -24 -32 -21 -51
-25 -142 -27 -99 -3 -107 -2 -147 24 -24 15 -47 27 -52 27 -12 0 -131 120
-131 132 0 5 -7 16 -15 24 -8 9 -15 28 -15 44 0 16 -4 31 -9 34 -4 3 -11 33
-15 67 -6 51 -3 70 15 115 20 47 26 54 51 54 33 0 35 9 7 33 -25 22 -20 43 10
40 23 -3 26 2 35 54 5 29 2 35 -23 47 -35 18 -41 13 -41 -34 0 -22 -7 -43 -16
-51 -8 -7 -22 -25 -30 -41 -8 -16 -26 -33 -40 -39 -20 -7 -24 -13 -18 -27 5
-9 10 -66 11 -127 1 -101 4 -115 32 -173 17 -34 31 -65 31 -69 0 -11 114 -112
126 -113 6 0 17 -7 24 -15 7 -8 23 -15 35 -15 13 0 25 -6 28 -14 14 -35 249
-35 278 0 6 8 25 14 41 14 20 0 37 8 50 25 11 14 26 25 34 25 18 0 74 59 74
77 0 7 8 17 18 22 10 5 25 36 36 73 9 35 22 71 27 80 14 27 10 121 -6 142 -8
11 -12 29 -9 41 7 28 -11 67 -82 173 -20 31 -95 92 -113 92 -5 0 -14 7 -21 15
-7 8 -22 15 -34 15 -11 0 -32 6 -46 13 -36 19 -187 14 -227 -7 -41 -21 -53
-20 -53 2 0 38 -76 72 -95 42z m65 -35 c0 -8 -7 -15 -15 -15 -16 0 -20 12 -8
23 11 12 23 8 23 -8z m52 -150 c0 -5 -5 -11 -11 -13 -6 -2 -11 4 -11 13 0 9 5
15 11 13 6 -2 11 -8 11 -13z"/>
<path d="M4717 6434 c-10 -11 3 -24 24 -24 10 0 19 7 19 15 0 15 -31 21 -43 9z"/>
<path d="M4530 6381 c0 -12 6 -21 16 -21 9 0 14 7 12 17 -5 25 -28 28 -28 4z"/>
<path d="M4426 6371 c-9 -13 19 -32 38 -25 25 10 19 34 -8 34 -14 0 -27 -4
-30 -9z"/>
<path d="M4310 6335 c0 -12 8 -16 33 -13 17 2 32 8 32 13 0 6 -15 11 -32 13
-25 3 -33 -1 -33 -13z"/>
<path d="M4113 6288 c15 -24 58 -31 64 -12 2 7 -10 17 -28 23 -46 16 -53 14
-36 -11z"/>
<path d="M4315 6279 c-51 -19 -95 -54 -95 -75 0 -7 -7 -20 -17 -29 -23 -24
-30 -107 -9 -124 9 -7 16 -19 16 -26 0 -6 18 -31 41 -53 41 -42 41 -42 117
-42 l76 0 58 59 c57 59 57 60 56 116 -1 46 -7 64 -30 92 -15 20 -28 39 -28 44
0 10 -52 34 -101 47 -27 7 -46 5 -84 -9z m133 -66 c30 -17 42 -30 42 -47 0
-13 7 -29 15 -36 19 -16 19 -37 1 -47 -8 -4 -16 -21 -18 -38 -2 -24 -12 -34
-48 -52 -54 -27 -82 -28 -130 -7 -27 12 -42 28 -58 64 -24 52 -27 76 -12 85 6
3 10 19 10 34 0 22 9 32 48 53 54 30 85 28 150 -9z"/>
<path d="M3861 6226 c-13 -15 -4 -26 21 -26 21 0 24 25 4 33 -8 3 -19 0 -25
-7z"/>
<path d="M3890 5801 c0 -15 6 -21 21 -21 25 0 22 33 -4 38 -12 2 -17 -3 -17
-17z"/>
<path d="M3950 5765 c0 -8 6 -15 14 -15 7 0 19 -7 26 -15 7 -8 20 -15 30 -15
10 0 20 -7 24 -15 3 -8 10 -15 16 -15 5 0 10 7 10 15 0 8 -6 15 -14 15 -8 0
-16 7 -20 15 -3 8 -17 15 -31 15 -16 0 -25 6 -25 15 0 8 -7 15 -15 15 -8 0
-15 -7 -15 -15z"/>
<path d="M4102 5688 c2 -13 8 -23 13 -23 6 0 11 10 13 23 2 15 -2 22 -13 22
-11 0 -15 -7 -13 -22z"/>
<path d="M4171 5640 c-25 -49 -26 -66 -5 -74 46 -18 106 6 88 35 -4 7 1 18 10
25 10 7 15 18 11 24 -5 8 -11 7 -22 -2 -13 -10 -18 -9 -33 10 -10 12 -20 22
-23 22 -3 0 -14 -18 -26 -40z"/>
<path d="M4335 5621 c-10 -17 33 -33 55 -21 11 6 18 15 15 21 -8 12 -62 12
-70 0z"/>
<path d="M6597 2893 c-4 -3 -7 -79 -7 -167 -1 -126 -4 -165 -15 -180 -11 -15
-15 -51 -15 -149 0 -116 2 -128 17 -125 23 4 63 76 63 113 -1 27 -2 28 -14 13
-7 -10 -18 -18 -25 -18 -17 0 -13 41 5 62 14 15 17 46 18 205 l1 188 26 3 c14
2 31 -4 39 -12 7 -9 19 -16 26 -16 8 0 14 -7 14 -15 0 -8 -4 -15 -10 -15 -5 0
-10 -19 -10 -42 0 -24 -7 -52 -15 -62 -8 -11 -15 -36 -15 -56 0 -20 -4 -40 -9
-45 -12 -14 -29 -87 -23 -103 6 -20 32 6 32 33 0 12 7 28 15 35 8 7 15 25 15
40 0 15 7 33 15 40 10 8 15 30 15 65 0 35 5 57 15 65 8 7 15 29 15 49 0 33 -4
39 -38 54 -21 9 -47 17 -58 17 -10 0 -28 7 -38 15 -22 17 -29 18 -39 8z"/>
<path d="M1280 2310 c0 -16 -7 -33 -16 -38 -14 -8 -16 -23 -12 -92 4 -74 3
-83 -14 -88 -10 -2 -18 -10 -18 -18 0 -20 31 -84 62 -128 16 -21 28 -45 28
-53 0 -7 4 -13 9 -13 5 0 12 -13 16 -29 3 -16 13 -35 21 -42 8 -6 14 -23 14
-38 0 -14 7 -35 15 -45 8 -11 15 -32 15 -47 0 -14 6 -32 13 -38 17 -14 16 -73
-2 -94 -20 -25 -4 -53 39 -70 24 -9 40 -22 40 -31 0 -9 11 -33 23 -54 30 -47
51 -95 67 -152 7 -25 16 -55 21 -68 5 -13 9 -31 9 -41 0 -10 7 -24 15 -31 8
-7 15 -29 15 -50 0 -21 7 -43 15 -50 9 -8 14 -27 13 -56 -3 -49 -1 -53 31 -56
19 -2 26 4 37 35 17 48 21 284 5 300 -6 6 -11 43 -11 82 -1 46 -6 77 -15 89
-11 14 -15 47 -15 118 0 54 -4 98 -9 98 -6 0 -11 15 -13 32 -2 24 -9 34 -23
36 -36 6 -105 42 -105 55 0 19 -169 349 -191 373 -10 11 -19 31 -19 45 0 29
-9 43 -32 52 -22 8 -23 34 -3 74 17 33 11 63 -11 63 -9 0 -14 -11 -14 -30z
m21 -203 c-19 -19 -30 3 -19 36 l12 32 8 -30 c4 -16 3 -34 -1 -38z m59 -73 c0
-9 9 -33 19 -53 11 -20 22 -43 25 -51 3 -8 10 -22 15 -30 24 -38 101 -202 101
-215 0 -7 10 -16 23 -20 12 -3 31 -10 42 -15 11 -4 28 -11 38 -14 12 -4 17
-16 17 -45 0 -22 5 -41 12 -43 8 -3 12 -38 12 -106 1 -66 5 -105 13 -110 6 -4
14 -38 17 -77 18 -201 18 -208 5 -216 -21 -12 -29 -1 -29 42 0 21 -4 47 -9 57
-5 9 -17 44 -26 77 -10 33 -27 74 -37 91 -10 17 -18 40 -18 51 0 29 -35 91
-68 121 -44 39 -52 62 -52 142 0 50 -4 76 -15 86 -8 9 -15 24 -15 33 0 10 -7
24 -15 31 -8 7 -15 21 -15 32 0 24 -23 70 -44 87 -9 8 -16 20 -16 27 0 8 -14
36 -31 64 -17 27 -28 54 -24 60 3 5 22 10 41 10 25 0 34 -4 34 -16z"/>
<path d="M6710 2170 c0 -6 7 -21 16 -35 17 -26 11 -44 -27 -94 -38 -48 -17
-56 31 -12 37 34 62 78 53 95 -23 42 -73 73 -73 46z"/>
<path d="M5512 1378 c2 -39 7 -53 18 -53 11 0 15 12 15 50 0 40 -4 50 -18 53
-16 3 -18 -3 -15 -50z"/>
</g>
</svg>
