<?xml version="1.0" standalone="no"?>
<!DOCTYPE svg PUBLIC "-//W3C//DTD SVG 20010904//EN"
 "http://www.w3.org/TR/2001/REC-SVG-20010904/DTD/svg10.dtd">
<svg version="1.0" xmlns="http://www.w3.org/2000/svg"
 width="300.000000pt" height="317.000000pt" viewBox="0 0 300.000000 317.000000"
 preserveAspectRatio="xMidYMid meet">
<metadata>
Created by potrace 1.10, written by Peter Selinger 2001-2011
</metadata>
<g transform="translate(0.000000,317.000000) scale(0.100000,-0.100000)"
fill="#ffffff" stroke="none">
<path d="M1800 3155 c0 -9 12 -21 28 -28 15 -6 31 -17 35 -24 4 -7 18 -13 30
-14 61 -1 225 -92 227 -124 0 -5 14 -19 30 -30 16 -11 30 -24 30 -30 0 -5 14
-18 30 -27 36 -21 38 -36 6 -44 -14 -3 -27 -12 -30 -20 -7 -18 -40 -18 -58 -1
-7 7 -40 19 -73 26 -33 7 -96 24 -140 38 -124 38 -275 62 -275 43 0 -5 18 -11
41 -15 125 -21 338 -116 474 -211 73 -52 295 -271 307 -304 4 -11 11 -20 15
-20 5 0 15 -15 22 -32 8 -18 21 -39 28 -46 7 -7 16 -25 20 -40 3 -15 17 -35
29 -45 13 -10 21 -24 17 -32 -3 -8 0 -15 6 -15 6 0 11 -7 11 -15 0 -8 5 -15
10 -15 6 0 10 -15 10 -34 0 -18 11 -54 25 -80 14 -26 23 -51 20 -56 -3 -5 -1
-11 5 -15 5 -3 10 -28 10 -54 0 -26 4 -51 10 -57 5 -5 12 -86 15 -179 3 -94 9
-190 14 -214 6 -30 5 -60 -5 -100 -7 -31 -13 -70 -14 -86 0 -56 -57 -225 -107
-320 -14 -27 -35 -66 -45 -86 -11 -20 -28 -45 -39 -54 -10 -10 -19 -23 -19
-29 -1 -22 -242 -256 -265 -256 -3 0 -22 -15 -41 -34 -19 -19 -49 -40 -67 -47
-18 -7 -53 -27 -78 -46 -27 -19 -59 -33 -76 -33 -24 0 -160 -41 -228 -69 -65
-27 -320 -48 -408 -33 -47 7 -60 7 -64 -4 -6 -16 -49 -19 -58 -4 -3 6 -18 10
-33 10 -48 1 -124 26 -150 49 -33 29 -116 71 -141 71 -11 0 -22 4 -25 9 -3 5
-22 12 -41 15 -19 4 -35 11 -35 16 0 6 -6 10 -13 10 -21 0 -77 30 -77 41 0 5
-7 9 -15 9 -8 0 -15 4 -15 9 0 4 -19 21 -42 36 -24 15 -59 44 -79 64 -19 20
-57 56 -82 80 -26 25 -47 50 -47 57 0 6 -21 31 -48 55 -42 40 -89 117 -121
202 -6 15 -15 27 -20 27 -6 0 -8 -7 -5 -15 4 -8 3 -15 -1 -15 -11 0 -34 33
-35 48 0 14 -24 42 -35 42 -3 0 -3 -5 1 -12 5 -7 3 -8 -5 -4 -7 5 -10 10 -7
13 3 4 -10 23 -29 45 -19 21 -35 43 -35 48 0 6 -4 10 -10 10 -15 0 -12 -16 5
-34 8 -8 15 -19 15 -25 0 -6 6 -11 13 -11 8 0 7 -3 -2 -9 -13 -8 -11 -18 13
-64 15 -31 36 -63 47 -73 22 -20 26 -42 4 -24 -16 13 -20 3 -9 -24 3 -8 11
-13 18 -10 8 3 17 -14 26 -52 8 -31 22 -66 32 -79 20 -26 24 -51 7 -57 -13 -4
30 -88 48 -95 7 -3 13 -10 13 -15 0 -18 125 -156 143 -157 9 -1 17 -8 17 -16
0 -18 17 -20 22 -3 6 17 68 -16 105 -54 26 -27 26 -28 5 -28 -26 0 -30 -28 -4
-36 9 -3 25 -10 35 -15 13 -7 17 -5 17 7 0 13 7 15 36 11 35 -6 74 -31 74 -48
0 -4 -10 -9 -22 -11 -36 -5 -30 -22 15 -43 23 -10 53 -27 66 -37 13 -10 42
-23 64 -29 23 -6 59 -19 82 -29 22 -10 64 -24 93 -30 28 -7 55 -16 58 -21 3
-5 18 -9 33 -9 15 0 32 -5 38 -11 12 -12 400 -18 508 -7 217 21 422 96 626
230 124 81 351 308 433 431 166 252 246 505 246 780 0 75 -4 138 -9 141 -10 6
-3 46 8 46 10 0 -7 182 -24 256 -8 36 -15 77 -15 92 0 15 -7 40 -15 56 -8 15
-15 37 -15 47 0 11 -4 19 -9 19 -5 0 -11 10 -14 23 -13 55 -52 143 -69 155
-11 8 -17 21 -13 31 3 11 -4 26 -20 41 -14 13 -25 28 -25 33 0 5 -16 32 -35
58 -19 27 -35 51 -35 54 0 3 -13 24 -30 47 -16 22 -30 47 -30 55 0 21 -235
251 -313 306 -118 84 -340 185 -465 212 -18 4 -36 13 -39 21 -7 19 -23 18 -23
-1z m380 -185 c-7 -4 3 -18 24 -34 34 -25 50 -24 24 2 -27 27 8 9 80 -40 107
-75 278 -248 329 -334 23 -39 67 -108 97 -153 31 -46 56 -90 56 -99 0 -9 9
-25 19 -36 11 -12 26 -39 34 -61 8 -22 27 -71 42 -110 15 -38 31 -92 36 -120
4 -27 15 -87 23 -132 19 -101 22 -179 8 -214 -8 -21 -7 -32 5 -48 26 -38 14
-215 -30 -431 -22 -109 -96 -284 -173 -411 -122 -201 -367 -431 -585 -548
-149 -80 -341 -138 -494 -148 -38 -2 -74 -8 -80 -13 -19 -15 -220 -12 -259 4
-20 8 -36 11 -36 5 0 -5 -7 -9 -16 -9 -14 0 -14 3 -3 18 11 14 11 15 -1 4 -16
-14 -82 -16 -108 -3 -26 13 -82 32 -137 46 -65 17 -146 49 -215 85 -50 26 -55
31 -52 58 3 26 -3 35 -37 58 -29 18 -49 25 -71 22 -23 -4 -30 -1 -30 13 0 32
-95 99 -160 114 -29 6 -63 35 -107 93 -18 23 -47 60 -64 81 -25 32 -30 45 -24
69 5 23 10 29 26 25 17 -5 23 -15 20 -35 0 -5 4 -8 9 -8 6 0 8 13 5 29 -4 26
-2 29 20 27 16 0 23 -6 20 -13 -2 -7 -1 -13 4 -13 10 0 75 -90 64 -90 -4 0 7
-8 25 -17 18 -9 43 -27 55 -40 46 -51 184 -147 263 -184 46 -22 86 -44 89 -49
3 -6 20 -10 36 -10 35 0 59 -12 109 -51 39 -30 158 -63 225 -61 22 1 90 2 150
1 145 -1 306 24 431 67 55 19 115 34 133 34 20 0 51 12 78 30 25 17 66 41 92
54 45 24 145 102 264 207 54 49 150 167 190 234 51 87 121 257 142 345 23 93
38 224 31 266 -4 21 -11 116 -16 209 -11 222 -25 308 -64 383 -9 17 -16 41
-16 53 0 24 -39 109 -69 149 -10 14 -44 66 -74 115 -40 64 -90 124 -175 208
-99 99 -219 197 -256 210 -5 2 -6 9 -2 15 6 9 12 9 29 0 12 -7 26 -11 31 -10
5 2 6 -4 3 -12 -5 -12 3 -10 31 7 20 12 49 28 64 34 28 12 57 53 38 53 -5 0
-10 5 -10 11 0 6 7 8 16 5 9 -3 12 -2 9 5 -4 5 -15 9 -24 7 -26 -4 -129 79
-131 104 0 4 11 2 25 -4 15 -7 21 -14 15 -18z m84 -129 c3 -5 -1 -11 -9 -14
-9 -4 -12 -1 -8 9 6 16 10 17 17 5z m-189 -32 c15 -14 -7 -10 -35 7 l-25 15
25 -7 c14 -3 29 -10 35 -15z m-1921 -1801 c16 -31 14 -50 -3 -32 -11 11 -26
64 -18 64 3 0 13 -14 21 -32z m56 -55 c11 -10 20 -24 19 -33 0 -11 -2 -11 -6
-2 -4 10 -9 9 -20 -5 -13 -16 -14 -16 -9 -1 3 10 1 20 -4 23 -10 6 -14 35 -5
35 3 0 14 -8 25 -17z m47 -30 c0 -10 -4 -24 -9 -30 -7 -9 -5 -15 7 -19 16 -7
16 -8 0 -16 -24 -14 -28 -5 -20 41 7 41 21 56 22 24z m23 -83 c0 -5 -6 -10
-12 -10 -10 0 -10 -2 -1 -8 8 -5 8 -12 -3 -26 -19 -27 -26 -15 -13 22 10 30
29 44 29 22z m32 -43 c6 -12 5 -16 -3 -15 -7 2 -18 -7 -24 -20 -9 -16 -14 -19
-18 -10 -2 8 1 22 9 33 8 10 14 28 15 39 0 15 2 17 6 6 3 -8 10 -23 15 -33z
m8 -45 c0 -13 -12 -22 -22 -16 -10 6 -1 24 13 24 5 0 9 -4 9 -8z m587 -418
c-3 -3 -12 -4 -19 -1 -8 3 -5 6 6 6 11 1 17 -2 13 -5z"/>
<path d="M2281 2817 c-8 -10 -7 -19 4 -33 13 -18 15 -18 31 -2 14 14 15 20 4
32 -15 19 -24 20 -39 3z m29 -17 c0 -5 -2 -10 -4 -10 -3 0 -8 5 -11 10 -3 6
-1 10 4 10 6 0 11 -4 11 -10z"/>
<path d="M351 715 c1 -19 18 -51 18 -35 0 8 -4 22 -9 30 -5 8 -9 11 -9 5z"/>
<path d="M328 653 c6 -2 18 -2 25 0 6 3 1 5 -13 5 -14 0 -19 -2 -12 -5z"/>
<path d="M1140 3084 c-200 -36 -454 -144 -605 -255 -163 -121 -401 -389 -456
-513 -11 -25 -24 -48 -29 -51 -13 -8 -30 -69 -36 -133 -5 -48 0 -67 62 -220
37 -92 68 -168 69 -170 2 -2 10 31 20 72 32 148 109 327 200 467 39 60 109
147 190 238 29 33 169 151 178 151 3 0 34 17 68 38 35 21 80 44 99 51 19 7 44
17 55 21 34 14 132 40 153 40 10 0 34 8 53 17 19 10 63 19 99 21 l65 4 2 -203
c1 -112 -2 -208 -7 -214 -6 -7 -5 -26 1 -48 5 -21 7 -42 3 -48 -3 -6 -5 -111
-5 -235 l2 -224 -78 -1 c-43 -1 -170 -2 -283 -3 -113 0 -210 -4 -217 -9 -6 -4
-24 -2 -39 3 -15 6 -67 10 -116 9 -83 -1 -89 -3 -94 -25 -3 -12 -13 -25 -21
-28 -8 -4 -13 -13 -10 -21 4 -9 1 -12 -8 -8 -12 4 -14 -2 -9 -28 3 -19 6 -43
7 -54 3 -29 13 -42 47 -59 24 -12 98 -14 422 -15 215 -1 394 -3 396 -5 2 -2 4
-148 5 -325 2 -303 3 -321 20 -321 12 0 17 -6 15 -17 -2 -10 -11 -17 -20 -15
-13 2 -15 -3 -8 -30 16 -61 22 -78 30 -78 4 0 8 -44 9 -97 2 -158 17 -306 31
-298 4 3 11 -1 14 -7 3 -7 4 16 2 52 -3 43 -2 56 4 40 14 -43 11 -5 -5 58 -10
38 -15 93 -13 153 2 67 0 93 -9 96 -7 3 -13 12 -13 22 0 9 -5 22 -12 29 -9 9
-9 17 0 34 16 33 18 50 5 73 -11 21 -23 268 -25 502 0 114 -3 134 -19 149 -15
14 -42 16 -191 14 -95 -1 -229 -1 -298 -1 -69 1 -164 1 -213 1 -48 0 -98 5
-111 11 -23 11 -42 56 -37 89 1 8 3 21 3 28 2 17 18 15 18 -2 0 -8 5 -18 10
-21 7 -4 9 2 5 18 -9 33 14 54 56 51 30 -2 123 -4 212 -4 16 0 31 -1 35 -1 4
-1 116 -1 250 0 223 1 243 2 261 20 18 18 19 42 20 504 1 431 0 487 -15 501
-22 22 -107 21 -177 -4 -31 -11 -62 -20 -69 -20 -23 0 -195 -58 -240 -81 -151
-76 -291 -192 -408 -340 -129 -162 -204 -296 -264 -477 -17 -52 -35 -94 -40
-94 -5 1 -29 49 -53 108 -60 150 -57 196 20 339 57 107 169 251 187 240 5 -3
7 0 5 7 -7 19 120 145 230 228 99 75 284 179 327 184 16 1 31 6 36 11 4 5 0 5
-8 0 -10 -5 -12 -5 -5 2 12 11 129 45 236 69 41 9 144 18 230 21 l157 6 16
-25 c15 -23 17 -75 16 -484 0 -253 0 -724 -1 -1048 0 -583 -2 -618 -33 -638
-6 -4 -7 -10 -3 -15 5 -4 12 -1 17 7 5 8 12 11 16 7 4 -3 2 -13 -4 -20 -7 -8
-10 -16 -7 -18 2 -3 0 -44 -5 -92 -6 -65 -17 -103 -42 -154 -32 -67 -43 -115
-33 -142 4 -11 8 -11 21 0 12 10 14 23 10 51 -6 36 6 53 17 26 3 -7 6 -1 6 14
1 15 5 30 11 33 5 3 10 17 10 31 0 13 4 24 8 24 11 0 33 162 39 284 3 67 1 91
-9 98 -10 7 -10 11 -1 15 10 4 13 203 14 936 1 1123 3 1049 -23 1098 l-20 39
-152 -1 c-83 -1 -185 -7 -226 -15z m405 -2184 c-3 -5 -11 -10 -16 -10 -6 0 -7
5 -4 10 3 6 11 10 16 10 6 0 7 -4 4 -10z m-158 -92 c-3 -8 -6 -5 -6 6 -1 11 2
17 5 13 3 -3 4 -12 1 -19z m10 -250 c-2 -13 -4 -3 -4 22 0 25 2 35 4 23 2 -13
2 -33 0 -45z"/>
<path d="M1982 2984 c-32 -22 -30 -76 4 -103 32 -25 52 -26 82 -5 16 11 22 25
22 53 0 63 -56 92 -108 55z m62 -20 c21 -8 21 -60 0 -68 -24 -9 -54 12 -54 38
0 35 17 44 54 30z"/>
<path d="M796 2778 c3 -5 10 -6 15 -3 13 9 11 12 -6 12 -8 0 -12 -4 -9 -9z"/>
<path d="M1865 2519 c-28 -33 -58 -75 -67 -92 -9 -18 -17 -28 -18 -24 0 14 39
84 65 115 14 17 21 33 16 37 -10 6 -76 -77 -104 -130 -55 -107 -54 -222 1
-350 31 -70 100 -180 201 -320 70 -96 123 -186 119 -202 -3 -15 25 -94 31 -84
3 5 6 -33 6 -83 0 -64 -4 -98 -14 -109 -7 -9 -10 -25 -7 -34 4 -10 4 -14 0
-10 -4 4 -25 -25 -46 -65 -22 -40 -56 -92 -77 -118 -67 -83 -66 -80 -51 -93 8
-8 11 -8 7 -1 -4 7 0 17 8 24 8 7 41 47 73 89 126 168 135 191 130 327 -6 151
-16 170 -241 496 -37 54 -84 132 -105 175 -34 72 -37 86 -39 173 l-1 95 9 -88
c15 -146 68 -252 243 -482 82 -109 138 -206 156 -273 16 -62 14 -179 -5 -232
-18 -52 -73 -140 -85 -137 -11 3 -91 -103 -85 -113 2 -4 -14 -24 -37 -46 -22
-21 -37 -32 -33 -24 8 13 7 13 -8 1 -9 -7 -17 -19 -17 -27 0 -7 -23 -32 -50
-55 -28 -23 -48 -44 -46 -47 10 -9 104 69 187 155 186 193 248 334 215 492
-19 90 -61 172 -149 294 -146 200 -187 264 -218 337 -28 66 -32 87 -33 170 -1
85 2 101 27 152 16 32 44 81 63 109 20 28 34 52 32 54 -2 2 -26 -23 -53 -56z"/>
<path d="M1974 2365 c-14 -25 -24 -49 -20 -52 3 -3 0 -13 -6 -21 -8 -9 -12
-49 -13 -106 0 -82 3 -98 32 -159 27 -56 61 -113 106 -172 294 -393 319 -528
149 -799 -47 -74 -182 -220 -289 -311 -46 -38 -83 -75 -83 -82 0 -7 2 -13 5
-13 2 0 51 37 107 83 142 114 272 247 341 347 155 230 140 386 -66 674 -118
165 -141 200 -128 191 13 -8 -36 76 -50 85 -5 3 -18 28 -31 55 -19 42 -23 68
-24 168 0 65 3 120 7 123 5 3 6 -3 2 -13 -4 -11 -2 -15 3 -10 14 13 12 57 -3
57 -7 0 -24 -20 -39 -45z m36 -302 c16 -35 33 -63 39 -63 5 0 17 -21 27 -47
10 -27 61 -106 113 -178 51 -71 114 -172 139 -224 41 -87 44 -99 46 -180 1
-62 -4 -99 -18 -134 -25 -65 -31 -53 -10 19 42 147 -6 272 -224 574 -117 162
-154 240 -158 332 l-3 73 10 -55 c5 -30 23 -83 39 -117z"/>
<path d="M485 1770 c3 -5 8 -10 11 -10 2 0 4 5 4 10 0 6 -5 10 -11 10 -5 0 -7
-4 -4 -10z"/>
<path d="M110 1143 c0 -6 8 -17 18 -24 16 -13 16 -13 2 6 -8 11 -16 22 -17 24
-2 2 -3 0 -3 -6z"/>
<path d="M1949 983 l-24 -28 28 24 c15 14 27 26 27 28 0 8 -8 1 -31 -24z"/>
</g>
</svg>
